<?xml version="1.0" encoding="UTF-8"?>
<svg id="Layer_2" data-name="Layer 2" xmlns="http://www.w3.org/2000/svg" viewBox="0 0 7724.95 2169.42">
  <defs>
    <style>
      .cls-1, .cls-2, .cls-3 {
        stroke-width: 0px;
      }

      .cls-2 {
        fill: #2d2d2d;
      }

      .cls-3 {
        fill: #4c4c4c;
      }
    </style>
  </defs>
  <g id="_3" data-name="3">
    <path class="cls-3" d="m1655.87,751.19h-16.67v-46.59c0-.89-.72-1.61-1.61-1.61h-15.01v-51.57c0-.89-.72-1.61-1.61-1.61h-16.67v-51.93c0-.43-.17-.83-.47-1.14l-21.13-21.13v-30.56c0-.89-.72-1.61-1.61-1.61h-10.02v-50.36c0-.27-.07-.54-.2-.78l-26.08-47.17v-5.64c0-.89-.72-1.61-1.61-1.61h-4.56l-3.39-68.26c-.05-.86-.75-1.53-1.61-1.53h-4.93c-.89,0-1.61.72-1.61,1.61v81.58l-22.63,41.02c-.13.24-.2.51-.2.78v50.36h-10.02c-.89,0-1.61.72-1.61,1.61v30.56l-21.13,21.13c-.3.3-.47.71-.47,1.14v51.93h-16.67c-.89,0-1.61.72-1.61,1.61v51.57h-15.01c-.89,0-1.61.72-1.61,1.61v46.59h-16.67c-.89,0-1.61.72-1.61,1.61v372.36c0,.89.72,1.61,1.61,1.61h36.67v439.81c0,.89.72,1.61,1.61,1.61h12.83v177.59c0,.89.72,1.61,1.61,1.61h33.15c.89,0,1.61-.72,1.61-1.61v-174.8h15.94c.89,0,1.61-.72,1.61-1.61v-531.49h23.6c.89,0,1.61-.72,1.61-1.61v-51.46h27.58c.89,0,1.61-.72,1.61-1.61v-32.89h77.04c.89,0,1.61-.72,1.61-1.61v-195.9c0-.89-.72-1.61-1.61-1.61Z"/>
    <path class="cls-3" d="m1858.5,1226.47h-26.29v-19.33c0-.89-.72-1.61-1.61-1.61h-19.33v-27.18c0-.89-.72-1.61-1.61-1.61h-70.69c-.89,0-1.61.72-1.61,1.61v158.43c0,.89.72,1.61,1.61,1.61h44.52c.89,0,1.61-.72,1.61-1.61v-21.94h73.4c.89,0,1.61-.72,1.61-1.61v-85.15c0-.89-.72-1.61-1.61-1.61Z"/>
    <path class="cls-3" d="m6864.65,1349.35h-68.69v-18.97c0-.89-.72-1.61-1.61-1.61h-53.66c-.89,0-1.61.72-1.61,1.61v18.97h-24.63c-.89,0-1.61.72-1.61,1.61v94.57c0,.89.72,1.61,1.61,1.61h16.15v34.45c0,.89.72,1.61,1.61,1.61h87.95v104.23c0,.89.72,1.61,1.61,1.61h17v58.36c0,.89.72,1.61,1.61,1.61h15.08c.89,0,1.61-.72,1.61-1.61v-215.38h7.59c.89,0,1.61-.72,1.61-1.61v-79.45c0-.89-.72-1.61-1.61-1.61Z"/>
    <path class="cls-3" d="m6003.88,665.2h-17.25v-156.14c0-.89-.72-1.61-1.61-1.61h-36.11v-54.98c0-.89-.72-1.61-1.61-1.61h-20.68v-22.4c0-.89-.72-1.61-1.61-1.61h-33.61v-8.01c0-.89-.72-1.61-1.61-1.61h-7.15l-4.01-104.87c-.03-.87-.74-1.55-1.61-1.55h-6.38c-.89,0-1.61.72-1.61,1.61v119.14l-26.15,26.14h-12.7c-.89,0-1.61.72-1.61,1.61v27.54h-37.83c-.89,0-1.61.72-1.61,1.61v104.7h-25.83c-.89,0-1.61.72-1.61,1.61v408.77c0,.89.72,1.61,1.61,1.61h99.61v385.7c0,.89.72,1.61,1.61,1.61h35.61v415.94c0,.89.72,1.61,1.61,1.61h12.75c.89,0,1.61-.72,1.61-1.61v-485.73h22.23c.89,0,1.61-.72,1.61-1.61v-177.53l24.52-16.77h24.29c.89,0,1.61-.72,1.61-1.61v-103.8l14.65-14.65c.3-.31.47-.71.47-1.13v-338.78c0-.89-.72-1.61-1.61-1.61Z"/>
    <path class="cls-3" d="m3107.81,776.65h-59.31c-.89,0-1.61.72-1.61,1.61v153.2c0,.89.72,1.61,1.61,1.61h34.21v301.95c0,.89.72,1.61,1.61,1.61h23.49c.89,0,1.61-.72,1.61-1.61v-456.75c0-.89-.72-1.61-1.61-1.61Z"/>
    <path class="cls-3" d="m5404.28,877.81h-75.13v-34.73c0-.89-.72-1.61-1.61-1.61h-12.26l-5.91-79.09c-.06-.83-.77-1.49-1.6-1.49h-5.16c-.89,0-1.61.72-1.61,1.61v84.44h-19.51c-.89,0-1.61.72-1.61,1.61v25.83h-36.54c-.31,0-.62.09-.88.26l-33.87,22.01c-.46.3-.73.8-.73,1.35v228.48c0,.89.72,1.61,1.61,1.61h14.65v119.7c0,.89.72,1.61,1.61,1.61h33.94c.89,0,1.61-.72,1.61-1.61v-50.73h36.37v51.89c0,.89.72,1.61,1.61,1.61h49.57v85.55c0,.89.72,1.61,1.61,1.61h17.38c.89,0,1.61-.72,1.61-1.61v-139.03h37.74c.89,0,1.61-.72,1.61-1.61v-322.6h-4.51v4.93Zm-86.37,0v-19.08h6.28v19.08h-6.28Z"/>
    <path class="cls-3" d="m2151.72,1277.93h-29.9v-48.99c0-.89-.72-1.61-1.61-1.61h-25.66c-.89,0-1.61.72-1.61,1.61v89.81c0,.89.72,1.61,1.61,1.61h49.21c.89,0,1.61-.72,1.61-1.61v-13.51h6.35c.89,0,1.61-.72,1.61-1.61v-24.09c0-.89-.72-1.61-1.61-1.61Z"/>
  </g>
  <g id="_2" data-name="2">
    <path class="cls-2" d="m6713.24,1319.59h-58.22v-33.29c0-.89-.72-1.61-1.61-1.61h-43.26v-71.5c0-.44-.17-.84-.48-1.15-.31-.31-.76-.51-1.16-.46l-39.65.74v-84.61c0-.89-.72-1.61-1.61-1.61h-62.08v-34.21c0-.89-.72-1.61-1.61-1.61h-188.02v-26.57h-58.61v6.38h-46.24v8.39h5.83v37.31h-25.31v12.97h-34.05c-.89,0-1.61.72-1.61,1.61v351.23c0,.89.72,1.61,1.61,1.61h4.7v228.68c0,.89.72,1.61,1.61,1.61h19.73c.89,0,1.61-.72,1.61-1.61v-172.86h49.75l16.98,16.98c.31.3.71.47,1.13.47h34.8v150.76c0,.89.72,1.61,1.61,1.61h33.28v28.63c0,.89.72,1.61,1.61,1.61h90.68c.89,0,1.61-.72,1.61-1.61v-42.59h101.91c.89,0,1.61-.72,1.61-1.61v-208.91h171.69c.89,0,1.61-.72,1.61-1.61v-35.61h20.17c.89,0,1.61-.72,1.61-1.61v-124.33c0-.89-.72-1.61-1.61-1.61Zm-492.7-203.82v-37.31h36.39v11.8h-20.17c-.89,0-1.61.72-1.61,1.61v36.87h-6v-12.97h-8.61Z"/>
    <path class="cls-2" d="m6105.52,1159.26h-19.62v-161.58c0-.89-.72-1.61-1.61-1.61h-26.14v-8.17c0-.89-.72-1.61-1.61-1.61h-13.18l-7.23-83.38c-.07-.84-.76-1.47-1.6-1.47h-7.89c-.89,0-1.61.72-1.61,1.61v93.01h-11.54c-.42,0-.82.16-1.14.47l-23.54,23.54c-.3.31-.47.71-.47,1.13v103.56h-24.02c-.33,0-.64.1-.91.28l-24.79,16.96c-.44.3-.71.8-.71,1.33v177.75c0,.89.72,1.61,1.61,1.61h165.97c.89,0,1.61-.72,1.61-1.61v-160.21c0-.89-.72-1.61-1.61-1.61Z"/>
    <path class="cls-2" d="m4859.67,230.51h-54.12v-80.65c0-.89-.72-1.61-1.61-1.61h-19.62v-31.56c0-.89-.72-1.61-1.61-1.61h-50.13v-34.21c0-.89-.72-1.61-1.61-1.61h-22.59l-3.59-77.72c-.04-.86-.74-1.54-1.61-1.54h-3.7c-.89,0-1.61.72-1.61,1.61v76.99c0,.37-.3.66-.66.66h-1.12c-1.47,0-2.67,1.2-2.67,2.67v17.23h-15.64c-.89,0-1.61.72-1.61,1.61v87.29h-88.61c-.89,0-1.61.72-1.61,1.61v765.27h-18.29c-.89,0-1.61.72-1.61,1.61v346.01h-28.91c-.89,0-1.61.72-1.61,1.61v149.64h-37.79v-384.49c0-.89-.72-1.61-1.61-1.61h-15.64v-20.95c0-.89-.72-1.61-1.61-1.61h-24.02c-.89,0-1.61.72-1.61,1.61v548.81c0,.89.72,1.61,1.61,1.61h93.77v14.67c0,.89.72,1.61,1.61,1.61h18.57c.89,0,1.61-.72,1.61-1.61v-35.04l17.55-17.55c.3-.3.48-.71.48-1.14v-38.87h122.26c.89,0,1.61-.72,1.61-1.61v-639.26h147.36c.89,0,1.61-.72,1.61-1.61V232.12c0-.89-.72-1.61-1.61-1.61Z"/>
    <path class="cls-2" d="m5546.97,1607.71h-24.95v-356.62c0-.89-.72-1.61-1.61-1.61h-22.27v-52.79c0-.89-.72-1.61-1.61-1.61h-127.49c-.89,0-1.61.72-1.61,1.61v139.03h-16.98c-.89,0-1.61.72-1.61,1.61v432.7c0,.89.72,1.61,1.61,1.61h32.52c.89,0,1.61-.72,1.61-1.61v-94.93h162.39c.89,0,1.61-.72,1.61-1.61v-64.18c0-.89-.72-1.61-1.61-1.61Z"/>
    <path class="cls-2" d="m5224.54,1126.09h-116.88c-.89,0-1.61.72-1.61,1.61v14.31h-68.71c-.89,0-1.61.72-1.61,1.61v280.98c0,.89.72,1.61,1.61,1.61h99.82v87.95c0,.89.72,1.61,1.61,1.61h13.51v105.4c0,.89.72,1.61,1.61,1.61h19.33v75.15c0,.89.72,1.61,1.61,1.61h19.73c.89,0,1.61-.72,1.61-1.61v-410.72l7.09-7.09c.3-.3.47-.71.47-1.14v-29.57h20.82c.89,0,1.61-.72,1.61-1.61v-120.11c0-.89-.72-1.61-1.61-1.61Z"/>
    <path class="cls-2" d="m3562.77,1255.02l-17.41-.37c-.42-.01-.85.16-1.16.46-.31.3-.48.71-.48,1.15v261.38c0,.89.72,1.61,1.61,1.61h17.4c.89,0,1.61-.72,1.61-1.61v-261.01c0-.88-.69-1.59-1.57-1.61Z"/>
    <rect class="cls-2" x="362.85" y="1585.16" width="26.15" height="322.85" rx="1.61" ry="1.61"/>
    <rect class="cls-2" x="6838.77" y="1647" width="18.29" height="214.2" rx="1.61" ry="1.61"/>
    <path class="cls-2" d="m3211.54,1454.25l-39.5-1.33c-.42,0-.86.15-1.17.45-.31.3-.49.72-.49,1.16v155c0,.89.72,1.61,1.61,1.61h39.5c.89,0,1.61-.72,1.61-1.61v-153.67c0-.87-.68-1.58-1.55-1.61Z"/>
    <path class="cls-2" d="m2093.34,968.2h-89.01c-.89,0-1.61.72-1.61,1.61v47.48h-36.87c-.89,0-1.61.72-1.61,1.61v22.27h-87.29c-.89,0-1.61.72-1.61,1.61v47.48h-15.64c-.89,0-1.61.72-1.61,1.61v221.35c0,.89.72,1.61,1.61,1.61h38.24v284.22c0,.89.72,1.61,1.61,1.61h30.96v96.09c0,.89.72,1.61,1.61,1.61h12.75c.89,0,1.61-.72,1.61-1.61v-376.4h146.86c.89,0,1.61-.72,1.61-1.61v-348.94c0-.89-.72-1.61-1.61-1.61Z"/>
    <path class="cls-2" d="m7722.66,1389.39h-133.62v-86.48c0-.89-.72-1.61-1.61-1.61h-37.02c-.89,0-1.61.72-1.61,1.61v88.14h-94.38v-13.35c0-.89-.72-1.61-1.61-1.61h-65.27c-.89,0-1.61.72-1.61,1.61v29.97h-36.22v-33.29c0-.89-.72-1.61-1.61-1.61h-101.43v-15.01c0-.89-.72-1.61-1.61-1.61h-65.62c-.43,0-.83.17-1.14.47l-21.25,21.25c-.3.3-.47.71-.47,1.14v287.93h-39.54v-592.07c0-.43-.17-.83-.47-1.14l-42.86-42.86c-.3-.3-.71-.47-1.13-.47h-42.46v-8.95h-77.77v8.95h-66.72c-.89,0-1.61.72-1.61,1.61v398.39c0,.89.72,1.61,1.61,1.61h73.34c.89,0,1.61-.72,1.61-1.61v-55.38h87.95c.89,0,1.61-.72,1.61-1.61v-29.79h50.33v417.1c0,.89.72,1.61,1.61,1.61h34.45v203.1c0,.89.72,1.61,1.61,1.61h32.52c.89,0,1.61-.72,1.61-1.61v-303.12h34.45c.89,0,1.61-.72,1.61-1.61v-211.24h477.18v413.62c0,.89.72,1.61,1.61,1.61h35.55c.89,0,1.61-.72,1.61-1.61v-472.08c0-.89-.72-1.61-1.61-1.61Z"/>
    <path class="cls-2" d="m932.75,1206.94l-35.32-7.85-46.08-.03c-.89,0-1.61.72-1.61,1.61v121.78h-11.92v-18.29c0-.89-.72-1.61-1.61-1.61h-73.76c-.89,0-1.61.72-1.61,1.61v37.73c0,.89.72,1.61,1.61,1.61h104.55v32.74c0,.89.72,1.61,1.61,1.61h13.25v49.46c0,.89.72,1.61,1.61,1.61h36.86c.89,0,1.61-.72,1.61-1.61v-159.02h10.46c.89,0,1.61-.72,1.61-1.61v-58.17c0-.75-.53-1.41-1.26-1.57Z"/>
    <path class="cls-2" d="m1737.76,985.45h-68.71v-35.54c0-.89-.72-1.61-1.61-1.61h-89.01c-.89,0-1.61.72-1.61,1.61v32.89h-27.58c-.89,0-1.61.72-1.61,1.61v51.46h-23.6c-.89,0-1.61.72-1.61,1.61v531.89c0,.89.72,1.61,1.61,1.61h105.26v49.46c0,.89.72,1.61,1.61,1.61h32.74v54.1c0,.89.72,1.61,1.61,1.61h37.39v126.52c0,.89.72,1.61,1.61,1.61h28.5c.89,0,1.61-.72,1.61-1.61v-465.88h3.4c.89,0,1.61-.72,1.61-1.61v-349.72c0-.89-.72-1.61-1.61-1.61Z"/>
    <path class="cls-2" d="m2269.37,893.9h-88.59c-.89,0-1.61.72-1.61,1.61v229.25h-26.25c-.89,0-1.61.72-1.61,1.61v177.26c0,.89.72,1.61,1.61,1.61h42.77v50.73c0,.89.72,1.61,1.61,1.61h18.16v463.63c0,.89.72,1.61,1.61,1.61h11.59c.89,0,1.61-.72,1.61-1.61v-270.56h18.16c.89,0,1.61-.72,1.61-1.61v-227.52h19.33c.89,0,1.61-.72,1.61-1.61v-424.41c0-.89-.72-1.61-1.61-1.61Z"/>
    <path class="cls-2" d="m2756.73,1037.19h-28.91v-83.31c0-.89-.72-1.61-1.61-1.61h-136.78c-.89,0-1.61.72-1.61,1.61v81.98h-24.93c-.89,0-1.61.72-1.61,1.61v212.65c0,.89.72,1.61,1.61,1.61h148.05v25.14c0,.89.72,1.61,1.61,1.61h34.45v61.2c0,.89.72,1.61,1.61,1.61h8.12c.89,0,1.61-.72,1.61-1.61v-300.89c0-.89-.72-1.61-1.61-1.61Z"/>
    <path class="cls-2" d="m3083.12,931.05h-34.21v-213.33c0-.89-.72-1.61-1.61-1.61h-66.19v-7.01c0-.89-.72-1.61-1.61-1.61h-9.32l-3.27-93.24c-.03-.87-.74-1.55-1.61-1.55h-4.5c-.89,0-1.61.72-1.61,1.61v93.19h-45.47c-.89,0-1.61.72-1.61,1.61v7.01h-22.82c-.89,0-1.61.72-1.61,1.61v18.29h-17.48v-6.06c0-.89-.72-1.61-1.61-1.61h-26.92c-.89,0-1.61.72-1.61,1.61v6.06h-18.44c-.89,0-1.61.72-1.61,1.61v602.06c0,.89.72,1.61,1.61,1.61h87.05v111.21c0,.89.72,1.61,1.61,1.61h15.08c.89,0,1.61-.72,1.61-1.61v-14.68h48v329.87c0,.89.72,1.61,1.61,1.61h13.91c.89,0,1.61-.72,1.61-1.61v-156.57h15.84c.89,0,1.61-.72,1.61-1.61v-339.18h56.55c.89,0,1.61-.72,1.61-1.61v-32.12h15.42c.89,0,1.61-.72,1.61-1.61v-302.35c0-.89-.72-1.61-1.61-1.61Z"/>
    <path class="cls-2" d="m747.98,1097.68h-4.5c-.89,0-1.61.72-1.61,1.61v5.57h-50.66v-48.81c0-.89-.72-1.61-1.61-1.61h-60.14v-9.92c0-.89-.72-1.61-1.61-1.61h-57.47c-.89,0-1.61.72-1.61,1.61v9.92h-61.05c-.89,0-1.61.72-1.61,1.61v18.29h-23.34v-7.33c0-.89-.72-1.61-1.61-1.61h-7.93c-.89,0-1.61.72-1.61,1.61v310.16c0,.89.72,1.61,1.61,1.61h6.45c.43,0,.83-.17,1.14-.47l16.71-16.71h78.89v555.01c0,.89.72,1.61,1.61,1.61h20.15c.89,0,1.61-.72,1.61-1.61v-524.83h126.52c.89,0,1.61-.72,1.61-1.61v-46.67h20.09c.89,0,1.61-.72,1.61-1.61v-242.6c0-.89-.72-1.61-1.61-1.61Z"/>
    <path class="cls-2" d="m349.7,1161.91h-32.94v-5.16c0-.89-.72-1.61-1.61-1.61h-38.96c-.89,0-1.61.72-1.61,1.61v5.16h-17.23v-20.95c0-.89-.72-1.61-1.61-1.61h-57.17c-.89,0-1.61.72-1.61,1.61v18.29h-18.63c-.37,0-.66-.3-.66-.66v-.78c0-1.47-1.2-2.67-2.67-2.67h-21.58c-1.47,0-2.67,1.2-2.67,2.67v.78c0,.37-.3.66-.66.66h-17.04v-5.48c0-.89-.72-1.61-1.61-1.61h-5.84c-.89,0-1.61.72-1.61,1.61v435.36H55.28c-.89,0-1.61.72-1.61,1.61v520.31c0,.89.72,1.61,1.61,1.61h22.74q1.03,0,1.07-5.99c.02-3.25.04-8.03.06-14.1.04-12.14.08-29.49.11-50.31.07-41.64.14-97.15.19-152.67.11-107.15.17-214.3.18-221.66h38.52c.89,0,1.61-.72,1.61-1.61v-14.98h92.81v258.78c0,.89.72,1.61,1.61,1.61h14.44c.89,0,1.61-.72,1.61-1.61v-161.8h51.31c.89,0,1.61-.72,1.61-1.61v-171.09h16.03c.89,0,1.61-.72,1.61-1.61v-19.75h51.81c.89,0,1.61-.72,1.61-1.61v-397.51h-4.51v6.77Z"/>
    <path class="cls-2" d="m1456.48,1124.76h-58.86v-12.85c0-.89-.72-1.61-1.61-1.61h-13.29c-1.47,0-2.67,1.2-2.67,2.67,0,.37-.3.66-.66.66h-37.75c-.89,0-1.61.72-1.61,1.61v9.52h-51.06c-1.47,0-2.67,1.2-2.67,2.67v.36c0,1.47,1.2,2.67,2.67,2.67h3.93v51.34h-30.9v-3.62c0-1.47-1.2-2.67-2.67-2.67h-.9c-1.47,0-2.67,1.2-2.67,2.67v234.48h-37.79v-164.24c0-.89-.72-1.61-1.61-1.61h-31.96c-.89,0-1.61.72-1.61,1.61v18.29h-29.11c-.89,0-1.61.72-1.61,1.61v17.84c0,.89.72,1.61,1.61,1.61h13.25v316.62c0,.89.72,1.61,1.61,1.61h84.74v67.06c0,.89.72,1.61,1.61,1.61h23.46v37.66c0,.89.72,1.61,1.61,1.61h25.72c.89,0,1.61-.72,1.61-1.61v-209.15h20.27v66.17c0,.89.72,1.61,1.61,1.61h33.15c.89,0,1.61-.72,1.61-1.61v-29.96h54.63v27.17c0,.89.72,1.61,1.61,1.61h36.35c.89,0,1.61-.72,1.61-1.61v-440.21c0-.89-.72-1.61-1.61-1.61Z"/>
  </g>
  <g id="_1" data-name="1">
    <path class="cls-1" d="m7724.8,1863.65l-.54-414.59v-1s-36.73-.27-36.73-.27c-.27-.22-.6-.34-.95-.34h-477.99c-.89,0-1.61.72-1.61,1.61v211.24h-34.45c-.89,0-1.61.72-1.61,1.61v303.12h-31.72v-203.1c0-.89-.72-1.61-1.61-1.61h-34.45v-417.1c0-.89-.72-1.61-1.61-1.61h-51.13c-.89,0-1.61.72-1.61,1.61v29.79h-87.95c-.89,0-1.61.72-1.61,1.61v55.38h-101.91c-.89,0-1.61.72-1.61,1.61v427.57h-14.27v-270.56c0-.89-.72-1.61-1.61-1.61h-17v-104.23c0-.89-.72-1.61-1.61-1.61h-87.95v-34.45c0-.89-.72-1.61-1.61-1.61h-38.34c-.89,0-1.61.72-1.61,1.61v35.61h-100.34v-2.02c3.15-.03,5.71-2.6,5.71-5.76v-2.38c0-3.18-2.58-5.76-5.76-5.76h-31.39c-3.18,0-5.76,2.58-5.76,5.76v2.38c0,3,2.3,5.47,5.23,5.74v2.05h-39.38c-.89,0-1.61.72-1.61,1.61v208.91h-101.91c-.89,0-1.61.72-1.61,1.61v42.59h-89.87v-28.63c0-.89-.72-1.61-1.61-1.61h-33.28v-150.76c0-.89-.72-1.61-1.61-1.61h-35.03l-16.98-16.98c-.3-.3-.71-.47-1.14-.47h-50.32c-.89,0-1.61.72-1.61,1.61v172.86h-18.92v-228.68c0-.89-.72-1.61-1.61-1.61h-33.28v-158.9c0-.89-.72-1.61-1.61-1.61h-211.64c-.89,0-1.61.72-1.61,1.61v485.73h-11.95v-415.94c0-.89-.72-1.61-1.61-1.61h-35.61v-385.7c0-.89-.72-1.61-1.61-1.61h-176.75c-.89,0-1.61.72-1.61,1.61v151.92h-18.16c-.89,0-1.61.72-1.61,1.61v19.33h-60.8v-26.3c0-.89-.72-1.61-1.61-1.61h-54.62c-.89,0-1.61.72-1.61,1.61v521.78h-162.39c-.89,0-1.61.72-1.61,1.61v94.93h-31.72v-519.46c0-.89-.72-1.61-1.61-1.61h-49.57v-51.89c0-.89-.72-1.61-1.61-1.61h-37.18c-.89,0-1.61.72-1.61,1.61v50.73h-55.96c-.89,0-1.61.72-1.61,1.61v29.8l-7.1,7.09c-.3.31-.47.71-.47,1.13v410.48h-18.92v-75.16c0-.89-.72-1.61-1.61-1.61h-19.33v-105.4c0-.89-.72-1.61-1.61-1.61h-13.51v-87.95c0-.89-.72-1.61-1.61-1.61h-119.35v-118.19c0-.89-.72-1.61-1.61-1.61h-18.16v-426.41c0-.89-.72-1.61-1.61-1.61h-112.29v-15.68c0-.89-.72-1.61-1.61-1.61h-85.44c-.89,0-1.61.72-1.61,1.61v15.68h-83.96c-.89,0-1.61.72-1.61,1.61v639.26h-122.26c-.89,0-1.61.72-1.61,1.61v39.11l-17.56,17.56c-.3.3-.47.71-.47,1.14v34.8h-17.76v-14.67c0-.89-.72-1.61-1.61-1.61h-93.76v-931.19c0-.89-.72-1.61-1.61-1.61h-58.87v-34.45c0-.89-.72-1.61-1.61-1.61h-122.08c-.89,0-1.61.72-1.61,1.61v34.45h-15.84c-.89,0-1.61.72-1.61,1.61v37.94h-28.63c-.89,0-1.61.72-1.61,1.61v927.71h-16.6v-136.8c0-.89-.72-1.61-1.61-1.61h-19.33v-346.16c0-.89-.72-1.61-1.61-1.61h-22.81v-15.84c0-.89-.72-1.61-1.61-1.61h-87.19c-.89,0-1.61.72-1.61,1.61v29.79h-28.63c-.89,0-1.61.72-1.61,1.61v72.83h-19.33c-.89,0-1.61.72-1.61,1.61v47.24h-37.94c-.89,0-1.61.72-1.61,1.61v7.99h-5.78v-1.72h-16.84v1.72h-6.78v-7.99c0-.89-.72-1.61-1.61-1.61h-15.08c-.89,0-1.61.72-1.61,1.61v179.83h-45.68v-405.71c0-.89-.72-1.61-1.61-1.61h-23.64l-45.82-45.82c-.3-.3-.71-.47-1.14-.47h-17.35v-28.63c0-.89-.72-1.61-1.61-1.61h-39.1v-33.28c0-.89-.72-1.61-1.61-1.61h-72.07c-.89,0-1.61.72-1.61,1.61v54.8h-30.99l-4.71-179.47c-.02-.88-.73-1.57-1.61-1.57h-9.39c-.89,0-1.61.72-1.61,1.61v179.42h-14.99c-.42,0-.83.17-1.14.47l-52.57,52.57c-.3.3-.47.71-.47,1.14v461.66h-16.6v-585.76c0-.89-.72-1.61-1.61-1.61h-19.33v-137.96c0-.89-.72-1.61-1.61-1.61h-30.38v-51.67c0-.43-.17-.83-.47-1.14l-17.67-17.67c-.3-.3-.71-.47-1.14-.47h-20l-4.74-180.66c-.02-.88-.73-1.56-1.61-1.56h-9.39c-.89,0-1.61.72-1.61,1.61v180.61h-14.15c-.89,0-1.61.72-1.61,1.61v50.73h-17c-.89,0-1.61.72-1.61,1.61l.04,17.69-17.32,35.8c-.11.22-.16.46-.16.71v120.98h-31.72v-32.12c0-.89-.72-1.61-1.61-1.61h-108.12c-.89,0-1.61.72-1.61,1.61v50.73h-18.16c-.89,0-1.61.72-1.61,1.61v53.06h-8.86c-.89,0-1.61.72-1.61,1.61v585.75h-38.7v-322.08c0-.43-.17-.83-.47-1.14l-17.1-17.1c-.3-.3-.71-.47-1.13-.47h-19.68v-32.12c0-.89-.72-1.61-1.61-1.61h-65.09c-.89,0-1.61.72-1.61,1.61v32.12h-56.54c-.89,0-1.61.72-1.61,1.61v339.18h-15.84c-.89,0-1.61.72-1.61,1.61v156.57h-13.11v-329.87c0-.89-.72-1.61-1.61-1.61h-48.81c-.89,0-1.61.72-1.61,1.61v14.68h-14.27v-111.21c0-.89-.72-1.61-1.61-1.61h-75.8v-3.71h5.04v-9.18h-35.97v9.18h5.04v3.71h-58.37v-61.2c0-.89-.72-1.61-1.61-1.61h-34.45v-25.14c0-.89-.72-1.61-1.61-1.61h-195.36c-.89,0-1.61.72-1.61,1.61v32.12h-51.89c-.89,0-1.61.72-1.61,1.61v20.49h-15.44v-514.81c0-.89-.72-1.61-1.61-1.61h-32.12v-53.06c0-.89-.72-1.61-1.61-1.61h-34.45v-30.96c0-.89-.72-1.61-1.61-1.61h-16.24c-.89,0-1.61.72-1.61,1.61v13.51h-31.44v-81.77c0-.89-.72-1.61-1.61-1.61h-5.03c-.89,0-1.61.72-1.61,1.61v81.77h-14.54c-.89,0-1.61.72-1.61,1.61v53.06h-14.67c-.89,0-1.61.72-1.61,1.61v48.4h-13.51c-.89,0-1.61.72-1.61,1.61v496.19h-19.33c-.89,0-1.61.72-1.61,1.61v227.52h-18.16c-.89,0-1.61.72-1.61,1.61v270.56h-10.78v-463.63c0-.89-.72-1.61-1.61-1.61h-18.16v-50.73c0-.89-.72-1.61-1.61-1.61h-51.13c-.89,0-1.61.72-1.61,1.61v13.51h-96.28v-15.98c0-1.11-.9-2.01-2.01-2.01s-2.01.9-2.01,2.01v5.63h-.69v-7.14c0-.89-.72-1.61-1.61-1.61h-58.14c-.89,0-1.61.72-1.61,1.61v17.5h-34.93c-.89,0-1.61.72-1.61,1.61v376.4h-11.95v-96.09c0-.89-.72-1.61-1.61-1.61h-30.96v-284.22c0-.89-.72-1.61-1.61-1.61h-113.65c-.89,0-1.61.72-1.61,1.61v21.94h-46.92v-4.1h-3.83v471.59h-27.7v-126.52c0-.89-.72-1.61-1.61-1.61h-37.39v-54.1c0-.89-.72-1.61-1.61-1.61h-32.74v-49.46c0-.89-.72-1.61-1.61-1.61h-42.75v-6.45h-40.74v6.45h-39.72c-.89,0-1.61.72-1.61,1.61v174.8h-32.34v-177.59c0-.89-.72-1.61-1.61-1.61h-50.39v-27.17c0-.89-.72-1.61-1.61-1.61h-55.43c-.89,0-1.61.72-1.61,1.61v29.96h-32.34v-66.17c0-.89-.72-1.61-1.61-1.61h-21.08c-.89,0-1.61.72-1.61,1.61v209.16h-24.91v-37.66c0-.89-.72-1.61-1.61-1.61h-23.46v-67.06c0-.89-.72-1.61-1.61-1.61h-84.74v-316.62c0-.89-.72-1.61-1.61-1.61h-13.25v-32.74c0-.89-.72-1.61-1.61-1.61h-65.24v-15.1c0-.89-.72-1.61-1.61-1.61h-40.74v-1.51l-8.6-9.32c-.3-.33-.73-.52-1.18-.52h-41.13c-.89,0-1.61.72-1.61,1.61v9.74h-34.58c-.89,0-1.61.72-1.61,1.61v29.96h-34.6c-.89,0-1.61.72-1.61,1.61v159.02h-36.06v-49.46c0-.89-.72-1.61-1.61-1.61h-13.25v-32.74c0-.89-.72-1.61-1.61-1.61h-139.92c-.89,0-1.61.72-1.61,1.61v46.67h-126.52c-.89,0-1.61.72-1.61,1.61v524.83h-19.34v-555.01c0-.89-.72-1.61-1.61-1.61h-79.46c-.43,0-.84.17-1.14.47l-16.71,16.71h-52.83c-.89,0-1.61.72-1.61,1.61v30.89h-36.46c-.89,0-1.61.72-1.61,1.61v495.12h-22.13v-352.14c0-.89-.72-1.61-1.61-1.61h-62.86c-.89,0-1.61.72-1.61,1.61v19.75h-16.03c-.89,0-1.61.72-1.61,1.61v171.09h-51.31c-.89,0-1.61.72-1.61,1.61v161.8h-13.64v-258.78c0-.89-.72-1.61-1.61-1.61h-93.61c-.89,0-1.61.72-1.61,1.61v14.98c-3.61,0-31.06.07-58.52.18-14.73.06-29.46.12-40.51.19q-19.41.13-19.41,1.24v500.29c0,.89.72,1.61,1.61,1.61h7721.73c.89,0,1.61-.72,1.61-1.61v-303.52c0-.26-.07-.47-.15-.64ZM2043.74,1312.02v6.33h-.69v-6.33h.69Zm1906.27-9.95v-6.16h6.78v6.16h-6.78Zm23.62,0v-6.16h5.78v6.16h-5.78Z"/>
  </g>
</svg>