<svg width="2529" height="1323" viewBox="0 0 2529 1323" fill="none" xmlns="http://www.w3.org/2000/svg">
<rect width="2529" height="1323" fill="#1E1E1E"/>
<g clip-path="url(#clip0_0_1)">
<path d="M1159.33 261.484L1165.11 265.438L1170.81 261.349L1327.79 148.517L1407.98 269.133L1413.95 278.123L1422.46 271.477L1668.96 78.8867L1731.14 286.938L1734.21 297.201L1744.24 293.435L2088.66 164.097L1964.25 372.032L1953.94 389.271L1973.91 387.108L2182.56 364.513L2078.48 462.996L2060.53 479.978L2085.24 480.259L2488.66 484.854L2193.33 636.927L2177.01 645.326L2192.91 654.483L2299.32 715.759L2135.05 770.904L2111.57 778.786L2133.94 789.416L2404.83 918.137L2057.92 946.234L2044.35 947.334L2049.46 959.956L2082.46 1041.42L1802.39 992.914L1782.54 989.476L1791.8 1007.37L1918.8 1252.63L1526.31 1101.73L1518.61 1098.77L1514.24 1105.76L1388.92 1306.42L1232.03 1130.2L1227.04 1124.59L1220.26 1127.82L959.268 1252.21L916.377 1123.33L913.383 1114.33L904.239 1116.84L674.318 1180.02L698.473 1029.92L700.924 1014.69L686.017 1018.67L238.249 1138.4L437.339 937.185L454.192 920.15H239.627L274.161 830.276L278.435 819.153L266.739 816.874L48.8896 774.411L326.599 712.474L353.566 706.459L328.996 693.821L44.2725 547.37L372.307 490.481L387.353 487.872L378.946 475.123L273.138 314.657L586.792 381.891L601.486 385.04L598.717 370.269L562.282 175.999L863.175 293.39L881.31 300.465L876.499 281.603L810.607 23.2061L1159.33 261.484Z" fill="url(#paint0_linear_0_1)" stroke="black" stroke-width="20"/>
</g>
<defs>
<linearGradient id="paint0_linear_0_1" x1="1264.52" y1="0" x2="1264.52" y2="1323.04" gradientUnits="userSpaceOnUse">
<stop stop-color="white"/>
<stop offset="0.0001" stop-color="#EFEFEF"/>
<stop offset="1" stop-color="#C3CA63"/>
</linearGradient>
<clipPath id="clip0_0_1">
<rect width="2529" height="1323" fill="white"/>
</clipPath>
</defs>
</svg>
