<svg width="1666" height="1038" viewBox="0 0 1666 1038" fill="none" xmlns="http://www.w3.org/2000/svg">
<rect width="1666" height="1038" fill="white"/>
<path d="M488.08 698.54L477.2 755.59L514.07 691.8L609.79 659.52L626.59 700.1L677.54 670.19L685.61 683.13L638.62 746.91L608.54 724.48L602.77 813.04L620.49 750.85L648.75 770.96L786.09 689.7L848.13 815.12L879.08 692.89L933.85 748.18L955.77 666.3L1027.34 729.29L1085.23 749.41L1094.59 813.32L1100.19 745.02L1040.83 718.43L1036.46 635.08L1133.14 635.12L1176.76 665.2L1220.23 649.64L1259.32 706.05L1224.11 633.56L1179.27 648.53L1087.87 587.95L1142.87 547.14L1178.95 539.61L1303.74 568.93L1198.62 529.02L1283.93 479.53L1163.98 531.12L1061.1 545.62L1096.35 469.1L1134.64 432.21L1151.31 461.49L1222.24 391.04L1156.24 436.99L1135.96 407.48L1084.44 457.56L1036.99 480.38L1023.61 401.34L1062.21 308.81L999.43 395.28L945.12 430.09L937.53 374.37L888.47 413.37L835.38 270.61L792.37 439.76L735.51 376.82L707.93 440.74L659.85 388.85L653.06 290.15L647.95 390.01L699.85 456.46V485.69L574.15 416.48L529.87 353.82L600.56 512.71L543.56 496.59L500.28 507.27L476 484.18L450 494.34L399.77 461.18L451.46 510.21L474.38 499.7L539.09 557.48L514.09 578.71L399.15 593.28L511.61 597.04L557.2 622.5L537.8 667.48L493.55 683.28L386.18 696.55L488.1 698.56L488.08 698.54ZM552.65 668.33L582.18 613.66L524.62 588.09L568.1 559.82L510.74 516.13L542.4 506.75L634.49 537.17L580.85 433L718.11 508.96V458.36L740.84 411.27L805.96 482.59L837.54 311.28L879.63 439.77L927.61 396.86L928.04 460.64L1014.49 394.55L1025.69 505.44L1082.09 472.36L1032.54 564.05L1119.25 545.95L1052.98 590.82L1123.81 627.95L1012.81 618.34L1022.16 703.43L948.5 633.49L929.28 725.85L872.93 658.74L842.84 770.96L796.41 665.11L660.58 745.99L707.02 681.09L687.43 649.57L628.56 677.53L616.68 639.31L552.64 668.34L552.65 668.33Z" fill="#1A171B"/>
<path d="M616.68 639.29L628.56 677.52L687.43 649.56L707.02 681.08L660.57 745.98L796.4 665.11L842.84 770.96L872.93 658.74L929.28 725.85L948.49 633.49L1022.15 703.43L1012.81 618.34L1121.29 626.96L1052.98 590.81L1119.25 545.94L1032.54 564.04L1082.09 472.35L1025.69 505.43L1014.49 398.49L928.04 460.63L927.61 396.85L879.63 439.77L837.54 311.28L805.96 477.64L740.84 406.32L718.11 458.36V508.96L580.85 432.99L634.48 537.17L542.39 506.74L510.73 516.12L568.1 559.81L524.61 588.08L582.18 613.65L552.65 668.32L616.68 639.29Z" fill="white" stroke="white" stroke-width="4.95" stroke-miterlimit="10"/>
<path d="M816.23 432.4C816.32 432.4 816.39 432.33 816.39 432.24C816.39 432.15 816.32 432.08 816.23 432.08C816.14 432.08 816.07 432.15 816.07 432.24C816.07 432.33 816.14 432.4 816.23 432.4Z" fill="black"/>
<path d="M835.95 432.51C836.1 432.51 836.22 432.39 836.22 432.24C836.22 432.09 836.1 431.97 835.95 431.97C835.8 431.97 835.68 432.09 835.68 432.24C835.68 432.39 835.8 432.51 835.95 432.51Z" fill="black"/>
<path d="M855.66 432.51C855.81 432.51 855.93 432.39 855.93 432.24C855.93 432.09 855.81 431.97 855.66 431.97C855.51 431.97 855.39 432.09 855.39 432.24C855.39 432.39 855.51 432.51 855.66 432.51Z" fill="black"/>
<path d="M875.37 432.45C875.492 432.45 875.59 432.351 875.59 432.23C875.59 432.108 875.492 432.01 875.37 432.01C875.249 432.01 875.15 432.108 875.15 432.23C875.15 432.351 875.249 432.45 875.37 432.45Z" fill="black"/>
<path d="M895.09 432.34C895.15 432.34 895.2 432.29 895.2 432.23C895.2 432.17 895.15 432.12 895.09 432.12C895.03 432.12 894.98 432.17 894.98 432.23C894.98 432.29 895.03 432.34 895.09 432.34Z" fill="black"/>
<path d="M737.37 452.11C737.46 452.11 737.53 452.04 737.53 451.95C737.53 451.86 737.46 451.79 737.37 451.79C737.28 451.79 737.21 451.86 737.21 451.95C737.21 452.04 737.28 452.11 737.37 452.11Z" fill="black"/>
<path d="M757.09 452.49C757.39 452.49 757.64 452.25 757.64 451.94C757.64 451.63 757.4 451.39 757.09 451.39C756.78 451.39 756.54 451.63 756.54 451.94C756.54 452.25 756.78 452.49 757.09 452.49Z" fill="black"/>
<path d="M776.8 452.88C777.31 452.88 777.73 452.46 777.73 451.95C777.73 451.44 777.31 451.02 776.8 451.02C776.29 451.02 775.87 451.44 775.87 451.95C775.87 452.46 776.29 452.88 776.8 452.88Z" fill="black"/>
<path d="M816.23 453.37C817.014 453.37 817.65 452.734 817.65 451.95C817.65 451.166 817.014 450.53 816.23 450.53C815.446 450.53 814.81 451.166 814.81 451.95C814.81 452.734 815.446 453.37 816.23 453.37Z" fill="black"/>
<path d="M835.95 453.48C836.8 453.48 837.48 452.79 837.48 451.95C837.48 451.11 836.79 450.42 835.95 450.42C835.11 450.42 834.42 451.11 834.42 451.95C834.42 452.79 835.11 453.48 835.95 453.48Z" fill="black"/>
<path d="M855.66 453.48C856.51 453.48 857.19 452.79 857.19 451.95C857.19 451.11 856.5 450.42 855.66 450.42C854.82 450.42 854.13 451.11 854.13 451.95C854.13 452.79 854.82 453.48 855.66 453.48Z" fill="black"/>
<path d="M875.37 453.42C876.19 453.42 876.85 452.76 876.85 451.94C876.85 451.12 876.19 450.46 875.37 450.46C874.55 450.46 873.89 451.12 873.89 451.94C873.89 452.76 874.55 453.42 875.37 453.42Z" fill="black"/>
<path d="M895.09 453.26C895.81 453.26 896.4 452.67 896.4 451.95C896.4 451.23 895.81 450.64 895.09 450.64C894.37 450.64 893.78 451.23 893.78 451.95C893.78 452.67 894.37 453.26 895.09 453.26Z" fill="black"/>
<path d="M914.8 453.04C915.402 453.04 915.89 452.552 915.89 451.95C915.89 451.348 915.402 450.86 914.8 450.86C914.198 450.86 913.71 451.348 913.71 451.95C913.71 452.552 914.198 453.04 914.8 453.04Z" fill="black"/>
<path d="M954.23 452.28C954.41 452.28 954.56 452.13 954.56 451.95C954.56 451.77 954.41 451.62 954.23 451.62C954.05 451.62 953.9 451.77 953.9 451.95C953.9 452.13 954.05 452.28 954.23 452.28Z" fill="black"/>
<path d="M717.66 472.37C718.052 472.37 718.37 472.052 718.37 471.66C718.37 471.268 718.052 470.95 717.66 470.95C717.268 470.95 716.95 471.268 716.95 471.66C716.95 472.052 717.268 472.37 717.66 472.37Z" fill="black"/>
<path d="M737.37 472.87C738.03 472.87 738.57 472.33 738.57 471.67C738.57 471.01 738.03 470.47 737.37 470.47C736.71 470.47 736.17 471.01 736.17 471.67C736.17 472.33 736.71 472.87 737.37 472.87Z" fill="black"/>
<path d="M757.09 473.36C758.03 473.36 758.78 472.6 758.78 471.67C758.78 470.74 758.02 469.98 757.09 469.98C756.16 469.98 755.4 470.74 755.4 471.67C755.4 472.6 756.16 473.36 757.09 473.36Z" fill="black"/>
<path d="M776.8 473.74C777.95 473.74 778.88 472.81 778.88 471.66C778.88 470.51 777.95 469.58 776.8 469.58C775.65 469.58 774.72 470.51 774.72 471.66C774.72 472.81 775.65 473.74 776.8 473.74Z" fill="black"/>
<path d="M796.52 474.07C797.85 474.07 798.93 472.99 798.93 471.66C798.93 470.33 797.85 469.25 796.52 469.25C795.19 469.25 794.11 470.33 794.11 471.66C794.11 472.99 795.19 474.07 796.52 474.07Z" fill="black"/>
<path d="M816.23 474.29C817.68 474.29 818.85 473.12 818.85 471.67C818.85 470.22 817.67 469.05 816.23 469.05C814.79 469.05 813.61 470.22 813.61 471.67C813.61 473.12 814.78 474.29 816.23 474.29Z" fill="black"/>
<path d="M835.95 474.4C837.46 474.4 838.68 473.18 838.68 471.67C838.68 470.16 837.46 468.94 835.95 468.94C834.44 468.94 833.22 470.16 833.22 471.67C833.22 473.18 834.44 474.4 835.95 474.4Z" fill="black"/>
<path d="M855.66 474.4C857.17 474.4 858.39 473.18 858.39 471.67C858.39 470.16 857.17 468.94 855.66 468.94C854.15 468.94 852.93 470.16 852.93 471.67C852.93 473.18 854.15 474.4 855.66 474.4Z" fill="black"/>
<path d="M875.37 474.34C876.85 474.34 878.05 473.14 878.05 471.66C878.05 470.18 876.85 468.98 875.37 468.98C873.89 468.98 872.69 470.18 872.69 471.66C872.69 473.14 873.89 474.34 875.37 474.34Z" fill="black"/>
<path d="M895.09 474.12C896.45 474.12 897.55 473.02 897.55 471.66C897.55 470.3 896.45 469.2 895.09 469.2C893.73 469.2 892.63 470.3 892.63 471.66C892.63 473.02 893.73 474.12 895.09 474.12Z" fill="black"/>
<path d="M914.8 473.85C916.01 473.85 916.99 472.87 916.99 471.66C916.99 470.45 916.01 469.47 914.8 469.47C913.59 469.47 912.61 470.45 912.61 471.66C912.61 472.87 913.59 473.85 914.8 473.85Z" fill="black"/>
<path d="M934.52 473.47C935.52 473.47 936.32 472.66 936.32 471.67C936.32 470.68 935.51 469.87 934.52 469.87C933.53 469.87 932.72 470.68 932.72 471.67C932.72 472.66 933.53 473.47 934.52 473.47Z" fill="black"/>
<path d="M954.23 473.03C954.98 473.03 955.6 472.42 955.6 471.66C955.6 470.9 954.99 470.29 954.23 470.29C953.47 470.29 952.86 470.9 952.86 471.66C952.86 472.42 953.47 473.03 954.23 473.03Z" fill="black"/>
<path d="M973.95 472.48C974.4 472.48 974.77 472.11 974.77 471.66C974.77 471.21 974.4 470.84 973.95 470.84C973.5 470.84 973.13 471.21 973.13 471.66C973.13 472.11 973.5 472.48 973.95 472.48Z" fill="black"/>
<path d="M993.66 471.94C993.81 471.94 993.93 471.82 993.93 471.67C993.93 471.52 993.81 471.4 993.66 471.4C993.51 471.4 993.39 471.52 993.39 471.67C993.39 471.82 993.51 471.94 993.66 471.94Z" fill="black"/>
<path d="M678.23 491.71C678.41 491.71 678.56 491.56 678.56 491.38C678.56 491.2 678.41 491.05 678.23 491.05C678.05 491.05 677.9 491.2 677.9 491.38C677.9 491.56 678.05 491.71 678.23 491.71Z" fill="black"/>
<path d="M717.66 493.02C718.57 493.02 719.3 492.29 719.3 491.38C719.3 490.47 718.57 489.74 717.66 489.74C716.75 489.74 716.02 490.47 716.02 491.38C716.02 492.29 716.75 493.02 717.66 493.02Z" fill="black"/>
<path d="M737.37 493.62C738.61 493.62 739.61 492.62 739.61 491.38C739.61 490.14 738.61 489.14 737.37 489.14C736.13 489.14 735.13 490.14 735.13 491.38C735.13 492.62 736.13 493.62 737.37 493.62Z" fill="black"/>
<path d="M757.09 494.11C758.6 494.11 759.82 492.89 759.82 491.38C759.82 489.87 758.6 488.65 757.09 488.65C755.58 488.65 754.36 489.87 754.36 491.38C754.36 492.89 755.58 494.11 757.09 494.11Z" fill="black"/>
<path d="M776.8 494.6C778.58 494.6 780.03 493.16 780.03 491.37C780.03 489.58 778.59 488.14 776.8 488.14C775.01 488.14 773.57 489.58 773.57 491.37C773.57 493.16 775.01 494.6 776.8 494.6Z" fill="black"/>
<path d="M796.52 494.99C798.51 494.99 800.13 493.37 800.13 491.38C800.13 489.39 798.51 487.77 796.52 487.77C794.53 487.77 792.91 489.39 792.91 491.38C792.91 493.37 794.53 494.99 796.52 494.99Z" fill="black"/>
<path d="M816.23 495.26C818.37 495.26 820.11 493.52 820.11 491.38C820.11 489.24 818.37 487.5 816.23 487.5C814.09 487.5 812.35 489.24 812.35 491.38C812.35 493.52 814.09 495.26 816.23 495.26Z" fill="black"/>
<path d="M835.95 495.37C838.15 495.37 839.94 493.58 839.94 491.38C839.94 489.18 838.15 487.39 835.95 487.39C833.75 487.39 831.96 489.18 831.96 491.38C831.96 493.58 833.75 495.37 835.95 495.37Z" fill="black"/>
<path d="M855.66 495.37C857.86 495.37 859.65 493.58 859.65 491.38C859.65 489.18 857.86 487.39 855.66 487.39C853.46 487.39 851.67 489.18 851.67 491.38C851.67 493.58 853.46 495.37 855.66 495.37Z" fill="black"/>
<path d="M875.37 495.26C877.51 495.26 879.25 493.52 879.25 491.38C879.25 489.24 877.51 487.5 875.37 487.5C873.23 487.5 871.49 489.24 871.49 491.38C871.49 493.52 873.23 495.26 875.37 495.26Z" fill="black"/>
<path d="M895.09 494.99C897.08 494.99 898.7 493.37 898.7 491.38C898.7 489.39 897.08 487.77 895.09 487.77C893.1 487.77 891.48 489.39 891.48 491.38C891.48 493.37 893.1 494.99 895.09 494.99Z" fill="black"/>
<path d="M914.8 494.6C916.58 494.6 918.03 493.16 918.03 491.37C918.03 489.58 916.59 488.14 914.8 488.14C913.01 488.14 911.57 489.58 911.57 491.37C911.57 493.16 913.01 494.6 914.8 494.6Z" fill="black"/>
<path d="M934.52 494.17C936.06 494.17 937.31 492.92 937.31 491.38C937.31 489.84 936.06 488.59 934.52 488.59C932.98 488.59 931.73 489.84 931.73 491.38C931.73 492.92 932.98 494.17 934.52 494.17Z" fill="black"/>
<path d="M954.23 493.62C955.47 493.62 956.47 492.62 956.47 491.38C956.47 490.14 955.47 489.14 954.23 489.14C952.99 489.14 951.99 490.14 951.99 491.38C951.99 492.62 952.99 493.62 954.23 493.62Z" fill="black"/>
<path d="M973.95 493.02C974.86 493.02 975.59 492.29 975.59 491.38C975.59 490.47 974.86 489.74 973.95 489.74C973.04 489.74 972.31 490.47 972.31 491.38C972.31 492.29 973.04 493.02 973.95 493.02Z" fill="black"/>
<path d="M993.66 492.42C994.23 492.42 994.7 491.95 994.7 491.38C994.7 490.81 994.24 490.34 993.66 490.34C993.08 490.34 992.62 490.81 992.62 491.38C992.62 491.95 993.09 492.42 993.66 492.42Z" fill="black"/>
<path d="M1013.38 491.76C1013.59 491.76 1013.76 491.59 1013.76 491.38C1013.76 491.17 1013.59 491 1013.38 491C1013.17 491 1013 491.17 1013 491.38C1013 491.59 1013.17 491.76 1013.38 491.76Z" fill="black"/>
<path d="M658.51 511.42C658.69 511.42 658.84 511.27 658.84 511.09C658.84 510.91 658.69 510.76 658.51 510.76C658.33 510.76 658.18 510.91 658.18 511.09C658.18 511.27 658.33 511.42 658.51 511.42Z" fill="black"/>
<path d="M678.23 512.18C678.832 512.18 679.32 511.692 679.32 511.09C679.32 510.488 678.832 510 678.23 510C677.628 510 677.14 510.488 677.14 511.09C677.14 511.692 677.628 512.18 678.23 512.18Z" fill="black"/>
<path d="M697.94 512.89C698.934 512.89 699.74 512.084 699.74 511.09C699.74 510.096 698.934 509.29 697.94 509.29C696.946 509.29 696.14 510.096 696.14 511.09C696.14 512.084 696.946 512.89 697.94 512.89Z" fill="black"/>
<path d="M717.66 513.6C719.046 513.6 720.17 512.476 720.17 511.09C720.17 509.704 719.046 508.58 717.66 508.58C716.274 508.58 715.15 509.704 715.15 511.09C715.15 512.476 716.274 513.6 717.66 513.6Z" fill="black"/>
<path d="M737.37 514.26C739.12 514.26 740.54 512.84 740.54 511.09C740.54 509.34 739.12 507.92 737.37 507.92C735.62 507.92 734.2 509.34 734.2 511.09C734.2 512.84 735.62 514.26 737.37 514.26Z" fill="black"/>
<path d="M757.09 514.86C759.17 514.86 760.86 513.17 760.86 511.09C760.86 509.01 759.17 507.32 757.09 507.32C755.01 507.32 753.32 509.01 753.32 511.09C753.32 513.17 755.01 514.86 757.09 514.86Z" fill="black"/>
<path d="M776.8 515.41C779.19 515.41 781.12 513.48 781.12 511.09C781.12 508.7 779.19 506.77 776.8 506.77C774.41 506.77 772.48 508.7 772.48 511.09C772.48 513.48 774.41 515.41 776.8 515.41Z" fill="black"/>
<path d="M796.52 515.85C799.15 515.85 801.28 513.72 801.28 511.09C801.28 508.46 799.15 506.33 796.52 506.33C793.89 506.33 791.76 508.46 791.76 511.09C791.76 513.72 793.89 515.85 796.52 515.85Z" fill="black"/>
<path d="M816.23 516.18C819.04 516.18 821.31 513.9 821.31 511.1C821.31 508.3 819.03 506.02 816.23 506.02C813.43 506.02 811.15 508.3 811.15 511.1C811.15 513.9 813.43 516.18 816.23 516.18Z" fill="black"/>
<path d="M835.95 516.34C838.85 516.34 841.2 513.99 841.2 511.09C841.2 508.19 838.85 505.84 835.95 505.84C833.05 505.84 830.7 508.19 830.7 511.09C830.7 513.99 833.05 516.34 835.95 516.34Z" fill="black"/>
<path d="M855.66 516.29C858.53 516.29 860.85 513.97 860.85 511.1C860.85 508.23 858.52 505.91 855.66 505.91C852.8 505.91 850.47 508.24 850.47 511.1C850.47 513.96 852.79 516.29 855.66 516.29Z" fill="black"/>
<path d="M875.37 516.12C878.15 516.12 880.4 513.87 880.4 511.09C880.4 508.31 878.15 506.06 875.37 506.06C872.59 506.06 870.34 508.31 870.34 511.09C870.34 513.87 872.59 516.12 875.37 516.12Z" fill="black"/>
<path d="M895.09 515.79C897.69 515.79 899.79 513.69 899.79 511.09C899.79 508.49 897.68 506.39 895.09 506.39C892.5 506.39 890.39 508.49 890.39 511.09C890.39 513.69 892.49 515.79 895.09 515.79Z" fill="black"/>
<path d="M914.8 515.3C917.13 515.3 919.01 513.42 919.01 511.09C919.01 508.76 917.13 506.88 914.8 506.88C912.47 506.88 910.59 508.76 910.59 511.09C910.59 513.42 912.47 515.3 914.8 515.3Z" fill="black"/>
<path d="M934.52 514.76C936.54 514.76 938.18 513.12 938.18 511.1C938.18 509.08 936.54 507.44 934.52 507.44C932.5 507.44 930.86 509.08 930.86 511.1C930.86 513.12 932.5 514.76 934.52 514.76Z" fill="black"/>
<path d="M954.23 514.15C955.92 514.15 957.29 512.78 957.29 511.09C957.29 509.4 955.92 508.03 954.23 508.03C952.54 508.03 951.17 509.4 951.17 511.09C951.17 512.78 952.54 514.15 954.23 514.15Z" fill="black"/>
<path d="M973.95 513.5C975.28 513.5 976.36 512.42 976.36 511.09C976.36 509.76 975.28 508.68 973.95 508.68C972.62 508.68 971.54 509.76 971.54 511.09C971.54 512.42 972.62 513.5 973.95 513.5Z" fill="black"/>
<path d="M993.66 512.79C994.6 512.79 995.35 512.03 995.35 511.1C995.35 510.17 994.59 509.41 993.66 509.41C992.73 509.41 991.97 510.17 991.97 511.1C991.97 512.03 992.73 512.79 993.66 512.79Z" fill="black"/>
<path d="M1013.38 512.02C1013.89 512.02 1014.31 511.6 1014.31 511.09C1014.31 510.58 1013.89 510.16 1013.38 510.16C1012.87 510.16 1012.45 510.58 1012.45 511.09C1012.45 511.6 1012.87 512.02 1013.38 512.02Z" fill="black"/>
<path d="M1033.09 511.26C1033.18 511.26 1033.25 511.19 1033.25 511.1C1033.25 511.01 1033.18 510.94 1033.09 510.94C1033 510.94 1032.93 511.01 1032.93 511.1C1032.93 511.19 1033 511.26 1033.09 511.26Z" fill="black"/>
<path d="M638.8 530.92C638.86 530.92 638.91 530.87 638.91 530.81C638.91 530.75 638.86 530.7 638.8 530.7C638.74 530.7 638.69 530.75 638.69 530.81C638.69 530.87 638.74 530.92 638.8 530.92Z" fill="black"/>
<path d="M658.51 531.74C659.024 531.74 659.44 531.324 659.44 530.81C659.44 530.296 659.024 529.88 658.51 529.88C657.996 529.88 657.58 530.296 657.58 530.81C657.58 531.324 657.996 531.74 658.51 531.74Z" fill="black"/>
<path d="M678.23 532.5C679.17 532.5 679.92 531.74 679.92 530.81C679.92 529.88 679.16 529.12 678.23 529.12C677.3 529.12 676.54 529.88 676.54 530.81C676.54 531.74 677.3 532.5 678.23 532.5Z" fill="black"/>
<path d="M697.94 533.27C699.3 533.27 700.4 532.17 700.4 530.81C700.4 529.45 699.3 528.35 697.94 528.35C696.58 528.35 695.48 529.45 695.48 530.81C695.48 532.17 696.58 533.27 697.94 533.27Z" fill="black"/>
<path d="M717.66 534.04C719.444 534.04 720.89 532.594 720.89 530.81C720.89 529.026 719.444 527.58 717.66 527.58C715.876 527.58 714.43 529.026 714.43 530.81C714.43 532.594 715.876 534.04 717.66 534.04Z" fill="black"/>
<path d="M737.37 534.8C739.57 534.8 741.36 533.01 741.36 530.81C741.36 528.61 739.57 526.82 737.37 526.82C735.17 526.82 733.38 528.61 733.38 530.81C733.38 533.01 735.17 534.8 737.37 534.8Z" fill="black"/>
<path d="M757.09 535.45C759.66 535.45 761.74 533.37 761.74 530.8C761.74 528.23 759.66 526.15 757.09 526.15C754.52 526.15 752.44 528.23 752.44 530.8C752.44 533.37 754.52 535.45 757.09 535.45Z" fill="black"/>
<path d="M776.8 536.11C779.73 536.11 782.1 533.74 782.1 530.81C782.1 527.88 779.73 525.51 776.8 525.51C773.87 525.51 771.5 527.88 771.5 530.81C771.5 533.74 773.87 536.11 776.8 536.11Z" fill="black"/>
<path d="M796.52 536.71C799.778 536.71 802.42 534.069 802.42 530.81C802.42 527.552 799.778 524.91 796.52 524.91C793.262 524.91 790.62 527.552 790.62 530.81C790.62 534.069 793.262 536.71 796.52 536.71Z" fill="black"/>
<path d="M816.23 537.09C819.7 537.09 822.52 534.28 822.52 530.8C822.52 527.32 819.71 524.51 816.23 524.51C812.75 524.51 809.94 527.32 809.94 530.8C809.94 534.28 812.75 537.09 816.23 537.09Z" fill="black"/>
<path d="M835.95 537.31C839.54 537.31 842.46 534.4 842.46 530.8C842.46 527.2 839.55 524.29 835.95 524.29C832.35 524.29 829.44 527.2 829.44 530.8C829.44 534.4 832.35 537.31 835.95 537.31Z" fill="black"/>
<path d="M855.66 537.26C859.22 537.26 862.11 534.37 862.11 530.81C862.11 527.25 859.22 524.36 855.66 524.36C852.1 524.36 849.21 527.25 849.21 530.81C849.21 534.37 852.1 537.26 855.66 537.26Z" fill="black"/>
<path d="M875.37 536.93C878.75 536.93 881.49 534.19 881.49 530.81C881.49 527.43 878.75 524.69 875.37 524.69C871.99 524.69 869.25 527.43 869.25 530.81C869.25 534.19 871.99 536.93 875.37 536.93Z" fill="black"/>
<path d="M895.09 536.49C898.23 536.49 900.78 533.94 900.78 530.8C900.78 527.66 898.23 525.11 895.09 525.11C891.95 525.11 889.4 527.66 889.4 530.8C889.4 533.94 891.95 536.49 895.09 536.49Z" fill="black"/>
<path d="M914.8 535.84C917.578 535.84 919.83 533.588 919.83 530.81C919.83 528.032 917.578 525.78 914.8 525.78C912.022 525.78 909.77 528.032 909.77 530.81C909.77 533.588 912.022 535.84 914.8 535.84Z" fill="black"/>
<path d="M934.52 535.18C936.94 535.18 938.89 533.22 938.89 530.81C938.89 528.4 936.93 526.44 934.52 526.44C932.11 526.44 930.15 528.4 930.15 530.81C930.15 533.22 932.11 535.18 934.52 535.18Z" fill="black"/>
<path d="M954.23 534.47C956.25 534.47 957.89 532.83 957.89 530.81C957.89 528.79 956.25 527.15 954.23 527.15C952.21 527.15 950.57 528.79 950.57 530.81C950.57 532.83 952.21 534.47 954.23 534.47Z" fill="black"/>
<path d="M973.95 533.7C975.55 533.7 976.85 532.4 976.85 530.8C976.85 529.2 975.55 527.9 973.95 527.9C972.35 527.9 971.05 529.2 971.05 530.8C971.05 532.4 972.35 533.7 973.95 533.7Z" fill="black"/>
<path d="M993.66 532.94C994.84 532.94 995.79 531.99 995.79 530.81C995.79 529.63 994.84 528.68 993.66 528.68C992.48 528.68 991.53 529.63 991.53 530.81C991.53 531.99 992.48 532.94 993.66 532.94Z" fill="black"/>
<path d="M1013.38 532.17C1014.13 532.17 1014.75 531.56 1014.75 530.8C1014.75 530.04 1014.14 529.43 1013.38 529.43C1012.62 529.43 1012.01 530.04 1012.01 530.8C1012.01 531.56 1012.62 532.17 1013.38 532.17Z" fill="black"/>
<path d="M1033.09 531.41C1033.42 531.41 1033.69 531.14 1033.69 530.81C1033.69 530.48 1033.42 530.21 1033.09 530.21C1032.76 530.21 1032.49 530.48 1032.49 530.81C1032.49 531.14 1032.76 531.41 1033.09 531.41Z" fill="black"/>
<path d="M638.8 551.01C639.071 551.01 639.29 550.791 639.29 550.52C639.29 550.249 639.071 550.03 638.8 550.03C638.529 550.03 638.31 550.249 638.31 550.52C638.31 550.791 638.529 551.01 638.8 551.01Z" fill="black"/>
<path d="M658.51 551.83C659.234 551.83 659.82 551.244 659.82 550.52C659.82 549.797 659.234 549.21 658.51 549.21C657.787 549.21 657.2 549.797 657.2 550.52C657.2 551.244 657.787 551.83 658.51 551.83Z" fill="black"/>
<path d="M678.23 552.65C679.41 552.65 680.36 551.7 680.36 550.52C680.36 549.34 679.41 548.39 678.23 548.39C677.05 548.39 676.1 549.34 676.1 550.52C676.1 551.7 677.05 552.65 678.23 552.65Z" fill="black"/>
<path d="M697.94 553.47C699.57 553.47 700.89 552.15 700.89 550.52C700.89 548.89 699.57 547.57 697.94 547.57C696.31 547.57 694.99 548.89 694.99 550.52C694.99 552.15 696.31 553.47 697.94 553.47Z" fill="black"/>
<path d="M717.66 554.29C719.74 554.29 721.43 552.6 721.43 550.52C721.43 548.44 719.74 546.75 717.66 546.75C715.58 546.75 713.89 548.44 713.89 550.52C713.89 552.6 715.58 554.29 717.66 554.29Z" fill="black"/>
<path d="M737.37 555.06C739.88 555.06 741.91 553.03 741.91 550.52C741.91 548.01 739.88 545.98 737.37 545.98C734.86 545.98 732.83 548.01 732.83 550.52C732.83 553.03 734.86 555.06 737.37 555.06Z" fill="black"/>
<path d="M757.09 555.88C760.05 555.88 762.45 553.48 762.45 550.52C762.45 547.56 760.05 545.16 757.09 545.16C754.13 545.16 751.73 547.56 751.73 550.52C751.73 553.48 754.13 555.88 757.09 555.88Z" fill="black"/>
<path d="M776.8 556.64C780.18 556.64 782.92 553.9 782.92 550.52C782.92 547.14 780.18 544.4 776.8 544.4C773.42 544.4 770.68 547.14 770.68 550.52C770.68 553.9 773.42 556.64 776.8 556.64Z" fill="black"/>
<path d="M796.52 557.35C800.29 557.35 803.35 554.29 803.35 550.52C803.35 546.75 800.29 543.69 796.52 543.69C792.75 543.69 789.69 546.75 789.69 550.52C789.69 554.29 792.75 557.35 796.52 557.35Z" fill="black"/>
<path d="M816.23 557.85C820.278 557.85 823.56 554.568 823.56 550.52C823.56 546.472 820.278 543.19 816.23 543.19C812.182 543.19 808.9 546.472 808.9 550.52C808.9 554.568 812.182 557.85 816.23 557.85Z" fill="black"/>
<path d="M835.95 557.85C839.998 557.85 843.28 554.568 843.28 550.52C843.28 546.472 839.998 543.19 835.95 543.19C831.902 543.19 828.62 546.472 828.62 550.52C828.62 554.568 831.902 557.85 835.95 557.85Z" fill="black"/>
<path d="M855.66 557.85C859.708 557.85 862.99 554.568 862.99 550.52C862.99 546.472 859.708 543.19 855.66 543.19C851.612 543.19 848.33 546.472 848.33 550.52C848.33 554.568 851.612 557.85 855.66 557.85Z" fill="black"/>
<path d="M875.37 557.57C879.264 557.57 882.42 554.414 882.42 550.52C882.42 546.626 879.264 543.47 875.37 543.47C871.477 543.47 868.32 546.626 868.32 550.52C868.32 554.414 871.477 557.57 875.37 557.57Z" fill="black"/>
<path d="M895.09 556.86C898.59 556.86 901.43 554.02 901.43 550.52C901.43 547.02 898.59 544.18 895.09 544.18C891.59 544.18 888.75 547.02 888.75 550.52C888.75 554.02 891.59 556.86 895.09 556.86Z" fill="black"/>
<path d="M914.8 556.15C917.909 556.15 920.43 553.63 920.43 550.52C920.43 547.411 917.909 544.89 914.8 544.89C911.691 544.89 909.17 547.411 909.17 550.52C909.17 553.63 911.691 556.15 914.8 556.15Z" fill="black"/>
<path d="M934.52 555.39C937.21 555.39 939.39 553.21 939.39 550.52C939.39 547.83 937.21 545.65 934.52 545.65C931.83 545.65 929.65 547.83 929.65 550.52C929.65 553.21 931.83 555.39 934.52 555.39Z" fill="black"/>
<path d="M954.23 554.57C956.46 554.57 958.28 552.76 958.28 550.52C958.28 548.28 956.47 546.47 954.23 546.47C951.99 546.47 950.18 548.28 950.18 550.52C950.18 552.76 951.99 554.57 954.23 554.57Z" fill="black"/>
<path d="M973.95 553.75C975.734 553.75 977.18 552.304 977.18 550.52C977.18 548.736 975.734 547.29 973.95 547.29C972.166 547.29 970.72 548.736 970.72 550.52C970.72 552.304 972.166 553.75 973.95 553.75Z" fill="black"/>
<path d="M993.66 552.93C994.99 552.93 996.07 551.85 996.07 550.52C996.07 549.19 994.99 548.11 993.66 548.11C992.33 548.11 991.25 549.19 991.25 550.52C991.25 551.85 992.33 552.93 993.66 552.93Z" fill="black"/>
<path d="M1013.38 552.11C1014.26 552.11 1014.97 551.398 1014.97 550.52C1014.97 549.642 1014.26 548.93 1013.38 548.93C1012.5 548.93 1011.79 549.642 1011.79 550.52C1011.79 551.398 1012.5 552.11 1013.38 552.11Z" fill="black"/>
<path d="M1033.09 551.29C1033.51 551.29 1033.86 550.95 1033.86 550.52C1033.86 550.09 1033.52 549.75 1033.09 549.75C1032.66 549.75 1032.32 550.09 1032.32 550.52C1032.32 550.95 1032.66 551.29 1033.09 551.29Z" fill="black"/>
<path d="M638.8 570.89C639.16 570.89 639.46 570.6 639.46 570.23C639.46 569.86 639.17 569.57 638.8 569.57C638.43 569.57 638.14 569.86 638.14 570.23C638.14 570.6 638.43 570.89 638.8 570.89Z" fill="black"/>
<path d="M658.51 571.77C659.355 571.77 660.04 571.085 660.04 570.24C660.04 569.395 659.355 568.71 658.51 568.71C657.665 568.71 656.98 569.395 656.98 570.24C656.98 571.085 657.665 571.77 658.51 571.77Z" fill="black"/>
<path d="M678.23 572.59C679.53 572.59 680.58 571.54 680.58 570.24C680.58 568.94 679.53 567.89 678.23 567.89C676.93 567.89 675.88 568.94 675.88 570.24C675.88 571.54 676.93 572.59 678.23 572.59Z" fill="black"/>
<path d="M697.94 573.47C699.724 573.47 701.17 572.024 701.17 570.24C701.17 568.456 699.724 567.01 697.94 567.01C696.156 567.01 694.71 568.456 694.71 570.24C694.71 572.024 696.156 573.47 697.94 573.47Z" fill="black"/>
<path d="M717.66 574.23C719.86 574.23 721.65 572.44 721.65 570.24C721.65 568.04 719.86 566.25 717.66 566.25C715.46 566.25 713.67 568.04 713.67 570.24C713.67 572.44 715.46 574.23 717.66 574.23Z" fill="black"/>
<path d="M737.37 575.1C740.06 575.1 742.24 572.92 742.24 570.23C742.24 567.54 740.06 565.36 737.37 565.36C734.68 565.36 732.5 567.54 732.5 570.23C732.5 572.92 734.68 575.1 737.37 575.1Z" fill="black"/>
<path d="M757.09 575.92C760.23 575.92 762.78 573.37 762.78 570.23C762.78 567.09 760.23 564.54 757.09 564.54C753.95 564.54 751.4 567.09 751.4 570.23C751.4 573.37 753.95 575.92 757.09 575.92Z" fill="black"/>
<path d="M776.8 576.8C780.42 576.8 783.36 573.86 783.36 570.24C783.36 566.62 780.42 563.68 776.8 563.68C773.18 563.68 770.24 566.62 770.24 570.24C770.24 573.86 773.18 576.8 776.8 576.8Z" fill="black"/>
<path d="M796.52 577.57C800.568 577.57 803.85 574.288 803.85 570.24C803.85 566.192 800.568 562.91 796.52 562.91C792.472 562.91 789.19 566.192 789.19 570.24C789.19 574.288 792.472 577.57 796.52 577.57Z" fill="black"/>
<path d="M816.23 577.57C820.278 577.57 823.56 574.288 823.56 570.24C823.56 566.192 820.278 562.91 816.23 562.91C812.182 562.91 808.9 566.192 808.9 570.24C808.9 574.288 812.182 577.57 816.23 577.57Z" fill="black"/>
<path d="M835.95 577.57C839.998 577.57 843.28 574.288 843.28 570.24C843.28 566.192 839.998 562.91 835.95 562.91C831.902 562.91 828.62 566.192 828.62 570.24C828.62 574.288 831.902 577.57 835.95 577.57Z" fill="black"/>
<path d="M855.66 577.57C859.708 577.57 862.99 574.288 862.99 570.24C862.99 566.192 859.708 562.91 855.66 562.91C851.612 562.91 848.33 566.192 848.33 570.24C848.33 574.288 851.612 577.57 855.66 577.57Z" fill="black"/>
<path d="M875.37 577.57C879.418 577.57 882.7 574.288 882.7 570.24C882.7 566.192 879.418 562.91 875.37 562.91C871.322 562.91 868.04 566.192 868.04 570.24C868.04 574.288 871.322 577.57 875.37 577.57Z" fill="black"/>
<path d="M895.09 576.85C898.741 576.85 901.7 573.89 901.7 570.24C901.7 566.589 898.741 563.63 895.09 563.63C891.439 563.63 888.48 566.589 888.48 570.24C888.48 573.89 891.439 576.85 895.09 576.85Z" fill="black"/>
<path d="M914.8 576.03C917.998 576.03 920.59 573.438 920.59 570.24C920.59 567.042 917.998 564.45 914.8 564.45C911.602 564.45 909.01 567.042 909.01 570.24C909.01 573.438 911.602 576.03 914.8 576.03Z" fill="black"/>
<path d="M934.52 575.21C937.27 575.21 939.49 572.98 939.49 570.24C939.49 567.5 937.26 565.27 934.52 565.27C931.78 565.27 929.55 567.5 929.55 570.24C929.55 572.98 931.78 575.21 934.52 575.21Z" fill="black"/>
<path d="M954.23 574.34C956.494 574.34 958.33 572.504 958.33 570.24C958.33 567.976 956.494 566.14 954.23 566.14C951.966 566.14 950.13 567.976 950.13 570.24C950.13 572.504 951.966 574.34 954.23 574.34Z" fill="black"/>
<path d="M973.95 573.52C975.76 573.52 977.23 572.05 977.23 570.24C977.23 568.43 975.76 566.96 973.95 566.96C972.14 566.96 970.67 568.43 970.67 570.24C970.67 572.05 972.14 573.52 973.95 573.52Z" fill="black"/>
<path d="M993.66 572.64C994.99 572.64 996.07 571.56 996.07 570.23C996.07 568.9 994.99 567.82 993.66 567.82C992.33 567.82 991.25 568.9 991.25 570.23C991.25 571.56 992.33 572.64 993.66 572.64Z" fill="black"/>
<path d="M1013.38 571.88C1014.29 571.88 1015.02 571.15 1015.02 570.24C1015.02 569.33 1014.29 568.6 1013.38 568.6C1012.47 568.6 1011.74 569.33 1011.74 570.24C1011.74 571.15 1012.47 571.88 1013.38 571.88Z" fill="black"/>
<path d="M1033.09 571C1033.51 571 1033.86 570.66 1033.86 570.23C1033.86 569.8 1033.52 569.46 1033.09 569.46C1032.66 569.46 1032.32 569.8 1032.32 570.23C1032.32 570.66 1032.66 571 1033.09 571Z" fill="black"/>
<path d="M638.8 590.66C639.192 590.66 639.51 590.342 639.51 589.95C639.51 589.558 639.192 589.24 638.8 589.24C638.408 589.24 638.09 589.558 638.09 589.95C638.09 590.342 638.408 590.66 638.8 590.66Z" fill="black"/>
<path d="M658.51 591.48C659.355 591.48 660.04 590.795 660.04 589.95C660.04 589.105 659.355 588.42 658.51 588.42C657.665 588.42 656.98 589.105 656.98 589.95C656.98 590.795 657.665 591.48 658.51 591.48Z" fill="black"/>
<path d="M678.23 592.3C679.53 592.3 680.58 591.25 680.58 589.95C680.58 588.65 679.53 587.6 678.23 587.6C676.93 587.6 675.88 588.65 675.88 589.95C675.88 591.25 676.93 592.3 678.23 592.3Z" fill="black"/>
<path d="M697.94 593.12C699.69 593.12 701.11 591.7 701.11 589.95C701.11 588.2 699.69 586.78 697.94 586.78C696.19 586.78 694.77 588.2 694.77 589.95C694.77 591.7 696.19 593.12 697.94 593.12Z" fill="black"/>
<path d="M717.66 593.94C719.86 593.94 721.65 592.15 721.65 589.95C721.65 587.75 719.86 585.96 717.66 585.96C715.46 585.96 713.67 587.75 713.67 589.95C713.67 592.15 715.46 593.94 717.66 593.94Z" fill="black"/>
<path d="M737.37 594.71C740 594.71 742.13 592.58 742.13 589.95C742.13 587.32 740 585.19 737.37 585.19C734.74 585.19 732.61 587.32 732.61 589.95C732.61 592.58 734.74 594.71 737.37 594.71Z" fill="black"/>
<path d="M757.09 595.53C760.17 595.53 762.67 593.03 762.67 589.95C762.67 586.87 760.17 584.37 757.09 584.37C754.01 584.37 751.51 586.87 751.51 589.95C751.51 593.03 754.01 595.53 757.09 595.53Z" fill="black"/>
<path d="M776.8 596.29C780.3 596.29 783.14 593.45 783.14 589.95C783.14 586.45 780.3 583.61 776.8 583.61C773.3 583.61 770.46 586.45 770.46 589.95C770.46 593.45 773.3 596.29 776.8 596.29Z" fill="black"/>
<path d="M796.52 597.06C800.44 597.06 803.63 593.88 803.63 589.95C803.63 586.02 800.45 582.84 796.52 582.84C792.59 582.84 789.41 586.02 789.41 589.95C789.41 593.88 792.59 597.06 796.52 597.06Z" fill="black"/>
<path d="M816.23 597.28C820.278 597.28 823.56 593.998 823.56 589.95C823.56 585.902 820.278 582.62 816.23 582.62C812.182 582.62 808.9 585.902 808.9 589.95C808.9 593.998 812.182 597.28 816.23 597.28Z" fill="black"/>
<path d="M835.95 597.28C839.998 597.28 843.28 593.998 843.28 589.95C843.28 585.902 839.998 582.62 835.95 582.62C831.902 582.62 828.62 585.902 828.62 589.95C828.62 593.998 831.902 597.28 835.95 597.28Z" fill="black"/>
<path d="M855.66 597.28C859.708 597.28 862.99 593.998 862.99 589.95C862.99 585.902 859.708 582.62 855.66 582.62C851.612 582.62 848.33 585.902 848.33 589.95C848.33 593.998 851.612 597.28 855.66 597.28Z" fill="black"/>
<path d="M875.37 596.95C879.236 596.95 882.37 593.816 882.37 589.95C882.37 586.084 879.236 582.95 875.37 582.95C871.504 582.95 868.37 586.084 868.37 589.95C868.37 593.816 871.504 596.95 875.37 596.95Z" fill="black"/>
<path d="M895.09 596.24C898.564 596.24 901.38 593.424 901.38 589.95C901.38 586.476 898.564 583.66 895.09 583.66C891.616 583.66 888.8 586.476 888.8 589.95C888.8 593.424 891.616 596.24 895.09 596.24Z" fill="black"/>
<path d="M914.8 595.47C917.849 595.47 920.32 592.999 920.32 589.95C920.32 586.901 917.849 584.43 914.8 584.43C911.751 584.43 909.28 586.901 909.28 589.95C909.28 592.999 911.751 595.47 914.8 595.47Z" fill="black"/>
<path d="M934.52 594.65C937.12 594.65 939.22 592.55 939.22 589.95C939.22 587.35 937.11 585.25 934.52 585.25C931.93 585.25 929.82 587.35 929.82 589.95C929.82 592.55 931.92 594.65 934.52 594.65Z" fill="black"/>
<path d="M954.23 593.83C956.373 593.83 958.11 592.093 958.11 589.95C958.11 587.807 956.373 586.07 954.23 586.07C952.087 586.07 950.35 587.807 950.35 589.95C950.35 592.093 952.087 593.83 954.23 593.83Z" fill="black"/>
<path d="M973.95 593.01C975.64 593.01 977.01 591.64 977.01 589.95C977.01 588.26 975.64 586.89 973.95 586.89C972.26 586.89 970.89 588.26 970.89 589.95C970.89 591.64 972.26 593.01 973.95 593.01Z" fill="black"/>
<path d="M993.66 592.19C994.9 592.19 995.9 591.19 995.9 589.95C995.9 588.71 994.9 587.71 993.66 587.71C992.42 587.71 991.42 588.71 991.42 589.95C991.42 591.19 992.42 592.19 993.66 592.19Z" fill="black"/>
<path d="M1013.38 591.37C1014.16 591.37 1014.8 590.734 1014.8 589.95C1014.8 589.166 1014.16 588.53 1013.38 588.53C1012.6 588.53 1011.96 589.166 1011.96 589.95C1011.96 590.734 1012.6 591.37 1013.38 591.37Z" fill="black"/>
<path d="M1033.09 590.55C1033.42 590.55 1033.69 590.28 1033.69 589.95C1033.69 589.62 1033.42 589.35 1033.09 589.35C1032.76 589.35 1032.49 589.62 1032.49 589.95C1032.49 590.28 1032.76 590.55 1033.09 590.55Z" fill="black"/>
<path d="M638.8 610.16C639.071 610.16 639.29 609.941 639.29 609.67C639.29 609.4 639.071 609.18 638.8 609.18C638.529 609.18 638.31 609.4 638.31 609.67C638.31 609.941 638.529 610.16 638.8 610.16Z" fill="black"/>
<path d="M658.51 610.98C659.234 610.98 659.82 610.393 659.82 609.67C659.82 608.946 659.234 608.36 658.51 608.36C657.787 608.36 657.2 608.946 657.2 609.67C657.2 610.393 657.787 610.98 658.51 610.98Z" fill="black"/>
<path d="M678.23 611.8C679.41 611.8 680.36 610.85 680.36 609.67C680.36 608.49 679.41 607.54 678.23 607.54C677.05 607.54 676.1 608.49 676.1 609.67C676.1 610.85 677.05 611.8 678.23 611.8Z" fill="black"/>
<path d="M697.94 612.56C699.54 612.56 700.84 611.26 700.84 609.66C700.84 608.06 699.54 606.76 697.94 606.76C696.34 606.76 695.04 608.06 695.04 609.66C695.04 611.26 696.34 612.56 697.94 612.56Z" fill="black"/>
<path d="M717.66 613.33C719.68 613.33 721.32 611.69 721.32 609.67C721.32 607.65 719.68 606.01 717.66 606.01C715.64 606.01 714 607.65 714 609.67C714 611.69 715.64 613.33 717.66 613.33Z" fill="black"/>
<path d="M737.37 614.04C739.79 614.04 741.74 612.08 741.74 609.67C741.74 607.26 739.78 605.3 737.37 605.3C734.96 605.3 733 607.26 733 609.67C733 612.08 734.96 614.04 737.37 614.04Z" fill="black"/>
<path d="M757.09 614.75C759.9 614.75 762.17 612.47 762.17 609.67C762.17 606.87 759.89 604.59 757.09 604.59C754.29 604.59 752.01 606.87 752.01 609.67C752.01 612.47 754.29 614.75 757.09 614.75Z" fill="black"/>
<path d="M776.8 615.35C779.94 615.35 782.49 612.8 782.49 609.66C782.49 606.52 779.94 603.97 776.8 603.97C773.66 603.97 771.11 606.52 771.11 609.66C771.11 612.8 773.66 615.35 776.8 615.35Z" fill="black"/>
<path d="M796.52 615.9C799.961 615.9 802.75 613.111 802.75 609.67C802.75 606.229 799.961 603.44 796.52 603.44C793.079 603.44 790.29 606.229 790.29 609.67C790.29 613.111 793.079 615.9 796.52 615.9Z" fill="black"/>
<path d="M816.23 616.23C819.85 616.23 822.79 613.29 822.79 609.67C822.79 606.05 819.85 603.11 816.23 603.11C812.61 603.11 809.67 606.05 809.67 609.67C809.67 613.29 812.61 616.23 816.23 616.23Z" fill="black"/>
<path d="M835.95 616.33C839.63 616.33 842.62 613.34 842.62 609.66C842.62 605.98 839.63 602.99 835.95 602.99C832.27 602.99 829.28 605.98 829.28 609.66C829.28 613.34 832.27 616.33 835.95 616.33Z" fill="black"/>
<path d="M855.66 616.17C859.255 616.17 862.17 613.255 862.17 609.66C862.17 606.065 859.255 603.15 855.66 603.15C852.065 603.15 849.15 606.065 849.15 609.66C849.15 613.255 852.065 616.17 855.66 616.17Z" fill="black"/>
<path d="M875.37 615.73C878.72 615.73 881.44 613.01 881.44 609.66C881.44 606.31 878.72 603.59 875.37 603.59C872.02 603.59 869.3 606.31 869.3 609.66C869.3 613.01 872.02 615.73 875.37 615.73Z" fill="black"/>
<path d="M895.09 615.19C898.139 615.19 900.61 612.719 900.61 609.67C900.61 606.621 898.139 604.15 895.09 604.15C892.041 604.15 889.57 606.621 889.57 609.67C889.57 612.719 892.041 615.19 895.09 615.19Z" fill="black"/>
<path d="M914.8 614.54C917.49 614.54 919.67 612.36 919.67 609.67C919.67 606.98 917.49 604.8 914.8 604.8C912.11 604.8 909.93 606.98 909.93 609.67C909.93 612.36 912.11 614.54 914.8 614.54Z" fill="black"/>
<path d="M934.52 613.82C936.81 613.82 938.67 611.96 938.67 609.67C938.67 607.38 936.81 605.52 934.52 605.52C932.23 605.52 930.37 607.38 930.37 609.67C930.37 611.96 932.23 613.82 934.52 613.82Z" fill="black"/>
<path d="M954.23 613.05C956.1 613.05 957.62 611.53 957.62 609.66C957.62 607.79 956.1 606.27 954.23 606.27C952.36 606.27 950.84 607.79 950.84 609.66C950.84 611.53 952.36 613.05 954.23 613.05Z" fill="black"/>
<path d="M973.95 612.29C975.4 612.29 976.57 611.12 976.57 609.67C976.57 608.22 975.4 607.05 973.95 607.05C972.5 607.05 971.33 608.22 971.33 609.67C971.33 611.12 972.5 612.29 973.95 612.29Z" fill="black"/>
<path d="M993.66 611.52C994.69 611.52 995.52 610.69 995.52 609.66C995.52 608.63 994.69 607.8 993.66 607.8C992.63 607.8 991.8 608.63 991.8 609.66C991.8 610.69 992.63 611.52 993.66 611.52Z" fill="black"/>
<path d="M1013.38 610.76C1013.98 610.76 1014.47 610.272 1014.47 609.67C1014.47 609.068 1013.98 608.58 1013.38 608.58C1012.78 608.58 1012.29 609.068 1012.29 609.67C1012.29 610.272 1012.78 610.76 1013.38 610.76Z" fill="black"/>
<path d="M1033.09 609.94C1033.24 609.94 1033.36 609.82 1033.36 609.67C1033.36 609.52 1033.24 609.4 1033.09 609.4C1032.94 609.4 1032.82 609.52 1032.82 609.67C1032.82 609.82 1032.94 609.94 1033.09 609.94Z" fill="black"/>
<path d="M638.8 629.54C638.89 629.54 638.96 629.47 638.96 629.38C638.96 629.29 638.89 629.22 638.8 629.22C638.71 629.22 638.64 629.29 638.64 629.38C638.64 629.47 638.71 629.54 638.8 629.54Z" fill="black"/>
<path d="M658.51 630.31C659.024 630.31 659.44 629.894 659.44 629.38C659.44 628.866 659.024 628.45 658.51 628.45C657.996 628.45 657.58 628.866 657.58 629.38C657.58 629.894 657.996 630.31 658.51 630.31Z" fill="black"/>
<path d="M678.23 631.07C679.163 631.07 679.92 630.313 679.92 629.38C679.92 628.447 679.163 627.69 678.23 627.69C677.297 627.69 676.54 628.447 676.54 629.38C676.54 630.313 677.297 631.07 678.23 631.07Z" fill="black"/>
<path d="M697.94 631.79C699.27 631.79 700.35 630.71 700.35 629.38C700.35 628.05 699.27 626.97 697.94 626.97C696.61 626.97 695.53 628.05 695.53 629.38C695.53 630.71 696.61 631.79 697.94 631.79Z" fill="black"/>
<path d="M717.66 632.44C719.35 632.44 720.72 631.07 720.72 629.38C720.72 627.69 719.35 626.32 717.66 626.32C715.97 626.32 714.6 627.69 714.6 629.38C714.6 631.07 715.97 632.44 717.66 632.44Z" fill="black"/>
<path d="M737.37 633.1C739.425 633.1 741.09 631.435 741.09 629.38C741.09 627.326 739.425 625.66 737.37 625.66C735.316 625.66 733.65 627.326 733.65 629.38C733.65 631.435 735.316 633.1 737.37 633.1Z" fill="black"/>
<path d="M757.09 633.7C759.48 633.7 761.41 631.77 761.41 629.38C761.41 626.99 759.48 625.06 757.09 625.06C754.7 625.06 752.77 626.99 752.77 629.38C752.77 631.77 754.7 633.7 757.09 633.7Z" fill="black"/>
<path d="M776.8 634.14C779.43 634.14 781.56 632.01 781.56 629.38C781.56 626.75 779.43 624.62 776.8 624.62C774.17 624.62 772.04 626.75 772.04 629.38C772.04 632.01 774.17 634.14 776.8 634.14Z" fill="black"/>
<path d="M796.52 634.57C799.39 634.57 801.71 632.24 801.71 629.38C801.71 626.52 799.38 624.19 796.52 624.19C793.66 624.19 791.33 626.52 791.33 629.38C791.33 632.24 793.65 634.57 796.52 634.57Z" fill="black"/>
<path d="M816.23 634.79C819.22 634.79 821.64 632.37 821.64 629.38C821.64 626.39 819.22 623.97 816.23 623.97C813.24 623.97 810.82 626.39 810.82 629.38C810.82 632.37 813.24 634.79 816.23 634.79Z" fill="black"/>
<path d="M835.95 634.85C838.97 634.85 841.42 632.4 841.42 629.38C841.42 626.36 838.97 623.91 835.95 623.91C832.93 623.91 830.48 626.36 830.48 629.38C830.48 632.4 832.93 634.85 835.95 634.85Z" fill="black"/>
<path d="M855.66 634.68C858.587 634.68 860.96 632.307 860.96 629.38C860.96 626.453 858.587 624.08 855.66 624.08C852.733 624.08 850.36 626.453 850.36 629.38C850.36 632.307 852.733 634.68 855.66 634.68Z" fill="black"/>
<path d="M875.37 634.35C878.12 634.35 880.34 632.12 880.34 629.38C880.34 626.64 878.11 624.41 875.37 624.41C872.63 624.41 870.4 626.64 870.4 629.38C870.4 632.12 872.63 634.35 875.37 634.35Z" fill="black"/>
<path d="M895.09 633.92C897.597 633.92 899.63 631.887 899.63 629.38C899.63 626.873 897.597 624.84 895.09 624.84C892.583 624.84 890.55 626.873 890.55 629.38C890.55 631.887 892.583 633.92 895.09 633.92Z" fill="black"/>
<path d="M914.8 633.37C917.004 633.37 918.79 631.584 918.79 629.38C918.79 627.177 917.004 625.39 914.8 625.39C912.596 625.39 910.81 627.177 910.81 629.38C910.81 631.584 912.596 633.37 914.8 633.37Z" fill="black"/>
<path d="M934.52 632.71C936.359 632.71 937.85 631.219 937.85 629.38C937.85 627.541 936.359 626.05 934.52 626.05C932.681 626.05 931.19 627.541 931.19 629.38C931.19 631.219 932.681 632.71 934.52 632.71Z" fill="black"/>
<path d="M954.23 632.06C955.71 632.06 956.91 630.86 956.91 629.38C956.91 627.9 955.71 626.7 954.23 626.7C952.75 626.7 951.55 627.9 951.55 629.38C951.55 630.86 952.75 632.06 954.23 632.06Z" fill="black"/>
<path d="M973.95 631.35C975.04 631.35 975.92 630.47 975.92 629.38C975.92 628.29 975.04 627.41 973.95 627.41C972.86 627.41 971.98 628.29 971.98 629.38C971.98 630.47 972.86 631.35 973.95 631.35Z" fill="black"/>
<path d="M993.66 630.64C994.35 630.64 994.92 630.08 994.92 629.38C994.92 628.68 994.36 628.12 993.66 628.12C992.96 628.12 992.4 628.68 992.4 629.38C992.4 630.08 992.96 630.64 993.66 630.64Z" fill="black"/>
<path d="M1013.38 629.87C1013.65 629.87 1013.87 629.651 1013.87 629.38C1013.87 629.11 1013.65 628.89 1013.38 628.89C1013.11 628.89 1012.89 629.11 1012.89 629.38C1012.89 629.651 1013.11 629.87 1013.38 629.87Z" fill="black"/>
<path d="M658.51 649.48C658.72 649.48 658.89 649.31 658.89 649.1C658.89 648.89 658.72 648.72 658.51 648.72C658.3 648.72 658.13 648.89 658.13 649.1C658.13 649.31 658.3 649.48 658.51 649.48Z" fill="black"/>
<path d="M678.23 650.18C678.832 650.18 679.32 649.692 679.32 649.09C679.32 648.488 678.832 648 678.23 648C677.628 648 677.14 648.488 677.14 649.09C677.14 649.692 677.628 650.18 678.23 650.18Z" fill="black"/>
<path d="M697.94 650.84C698.91 650.84 699.69 650.06 699.69 649.09C699.69 648.12 698.91 647.34 697.94 647.34C696.97 647.34 696.19 648.12 696.19 649.09C696.19 650.06 696.97 650.84 697.94 650.84Z" fill="black"/>
<path d="M717.66 651.39C718.93 651.39 719.96 650.36 719.96 649.09C719.96 647.82 718.93 646.79 717.66 646.79C716.39 646.79 715.36 647.82 715.36 649.09C715.36 650.36 716.39 651.39 717.66 651.39Z" fill="black"/>
<path d="M737.37 651.94C738.94 651.94 740.21 650.67 740.21 649.1C740.21 647.53 738.94 646.26 737.37 646.26C735.8 646.26 734.53 647.53 734.53 649.1C734.53 650.67 735.8 651.94 737.37 651.94Z" fill="black"/>
<path d="M757.09 652.43C758.93 652.43 760.42 650.94 760.42 649.1C760.42 647.26 758.93 645.77 757.09 645.77C755.25 645.77 753.76 647.26 753.76 649.1C753.76 650.94 755.25 652.43 757.09 652.43Z" fill="black"/>
<path d="M776.8 652.87C778.88 652.87 780.57 651.18 780.57 649.1C780.57 647.02 778.88 645.33 776.8 645.33C774.72 645.33 773.03 647.02 773.03 649.1C773.03 651.18 774.72 652.87 776.8 652.87Z" fill="black"/>
<path d="M796.52 653.08C798.72 653.08 800.51 651.29 800.51 649.09C800.51 646.89 798.72 645.1 796.52 645.1C794.32 645.1 792.53 646.89 792.53 649.09C792.53 651.29 794.32 653.08 796.52 653.08Z" fill="black"/>
<path d="M816.23 653.3C818.56 653.3 820.44 651.42 820.44 649.09C820.44 646.76 818.56 644.88 816.23 644.88C813.9 644.88 812.02 646.76 812.02 649.09C812.02 651.42 813.9 653.3 816.23 653.3Z" fill="black"/>
<path d="M835.95 653.3C838.275 653.3 840.16 651.415 840.16 649.09C840.16 646.765 838.275 644.88 835.95 644.88C833.625 644.88 831.74 646.765 831.74 649.09C831.74 651.415 833.625 653.3 835.95 653.3Z" fill="black"/>
<path d="M855.66 653.14C857.89 653.14 859.71 651.33 859.71 649.09C859.71 646.85 857.9 645.04 855.66 645.04C853.42 645.04 851.61 646.85 851.61 649.09C851.61 651.33 853.42 653.14 855.66 653.14Z" fill="black"/>
<path d="M875.37 652.87C877.45 652.87 879.14 651.18 879.14 649.1C879.14 647.02 877.45 645.33 875.37 645.33C873.29 645.33 871.6 647.02 871.6 649.1C871.6 651.18 873.29 652.87 875.37 652.87Z" fill="black"/>
<path d="M895.09 652.53C896.99 652.53 898.53 650.99 898.53 649.09C898.53 647.19 896.99 645.65 895.09 645.65C893.19 645.65 891.65 647.19 891.65 649.09C891.65 650.99 893.19 652.53 895.09 652.53Z" fill="black"/>
<path d="M914.8 652.04C916.429 652.04 917.75 650.719 917.75 649.09C917.75 647.461 916.429 646.14 914.8 646.14C913.171 646.14 911.85 647.461 911.85 649.09C911.85 650.719 913.171 652.04 914.8 652.04Z" fill="black"/>
<path d="M934.52 651.5C935.85 651.5 936.93 650.42 936.93 649.09C936.93 647.76 935.85 646.68 934.52 646.68C933.19 646.68 932.11 647.76 932.11 649.09C932.11 650.42 933.19 651.5 934.52 651.5Z" fill="black"/>
<path d="M973.95 650.29C974.613 650.29 975.15 649.753 975.15 649.09C975.15 648.427 974.613 647.89 973.95 647.89C973.287 647.89 972.75 648.427 972.75 649.09C972.75 649.753 973.287 650.29 973.95 650.29Z" fill="black"/>
<path d="M993.66 649.58C993.931 649.58 994.15 649.361 994.15 649.09C994.15 648.819 993.931 648.6 993.66 648.6C993.389 648.6 993.17 648.819 993.17 649.09C993.17 649.361 993.389 649.58 993.66 649.58Z" fill="black"/>
<path d="M717.66 670.23C718.444 670.23 719.08 669.594 719.08 668.81C719.08 668.026 718.444 667.39 717.66 667.39C716.876 667.39 716.24 668.026 716.24 668.81C716.24 669.594 716.876 670.23 717.66 670.23Z" fill="black"/>
<path d="M737.37 670.72C738.43 670.72 739.28 669.86 739.28 668.81C739.28 667.76 738.42 666.9 737.37 666.9C736.32 666.9 735.46 667.76 735.46 668.81C735.46 669.86 736.32 670.72 737.37 670.72Z" fill="black"/>
<path d="M757.09 671.11C758.36 671.11 759.39 670.08 759.39 668.81C759.39 667.54 758.36 666.51 757.09 666.51C755.82 666.51 754.79 667.54 754.79 668.81C754.79 670.08 755.82 671.11 757.09 671.11Z" fill="black"/>
<path d="M776.8 671.43C778.25 671.43 779.42 670.25 779.42 668.81C779.42 667.37 778.25 666.19 776.8 666.19C775.35 666.19 774.18 667.37 774.18 668.81C774.18 670.25 775.35 671.43 776.8 671.43Z" fill="black"/>
<path d="M816.23 671.76C817.86 671.76 819.18 670.44 819.18 668.81C819.18 667.18 817.86 665.86 816.23 665.86C814.6 665.86 813.28 667.18 813.28 668.81C813.28 670.44 814.6 671.76 816.23 671.76Z" fill="black"/>
<path d="M835.95 671.76C837.58 671.76 838.9 670.44 838.9 668.81C838.9 667.18 837.58 665.86 835.95 665.86C834.32 665.86 833 667.18 833 668.81C833 670.44 834.32 671.76 835.95 671.76Z" fill="black"/>
<path d="M855.66 671.65C857.23 671.65 858.5 670.38 858.5 668.81C858.5 667.24 857.23 665.97 855.66 665.97C854.09 665.97 852.82 667.24 852.82 668.81C852.82 670.38 854.09 671.65 855.66 671.65Z" fill="black"/>
<path d="M895.09 671.11C896.36 671.11 897.39 670.08 897.39 668.81C897.39 667.54 896.36 666.51 895.09 666.51C893.82 666.51 892.79 667.54 892.79 668.81C892.79 670.08 893.82 671.11 895.09 671.11Z" fill="black"/>
<path d="M914.8 670.67C915.83 670.67 916.66 669.84 916.66 668.81C916.66 667.78 915.83 666.95 914.8 666.95C913.77 666.95 912.94 667.78 912.94 668.81C912.94 669.84 913.77 670.67 914.8 670.67Z" fill="black"/>
<path d="M934.52 670.23C935.304 670.23 935.94 669.594 935.94 668.81C935.94 668.026 935.304 667.39 934.52 667.39C933.736 667.39 933.1 668.026 933.1 668.81C933.1 669.594 933.736 670.23 934.52 670.23Z" fill="black"/>
<path d="M717.66 688.96C717.9 688.96 718.1 688.76 718.1 688.52C718.1 688.28 717.9 688.08 717.66 688.08C717.42 688.08 717.22 688.28 717.22 688.52C717.22 688.76 717.42 688.96 717.66 688.96Z" fill="black"/>
<path d="M737.37 689.34C737.82 689.34 738.19 688.97 738.19 688.52C738.19 688.07 737.82 687.7 737.37 687.7C736.92 687.7 736.55 688.07 736.55 688.52C736.55 688.97 736.92 689.34 737.37 689.34Z" fill="black"/>
<path d="M757.09 689.72C757.753 689.72 758.29 689.183 758.29 688.52C758.29 687.857 757.753 687.32 757.09 687.32C756.427 687.32 755.89 687.857 755.89 688.52C755.89 689.183 756.427 689.72 757.09 689.72Z" fill="black"/>
<path d="M816.23 690.22C817.17 690.22 817.92 689.46 817.92 688.53C817.92 687.6 817.16 686.84 816.23 686.84C815.3 686.84 814.54 687.6 814.54 688.53C814.54 689.46 815.3 690.22 816.23 690.22Z" fill="black"/>
<path d="M835.95 690.22C836.89 690.22 837.64 689.46 837.64 688.53C837.64 687.6 836.88 686.84 835.95 686.84C835.02 686.84 834.26 687.6 834.26 688.53C834.26 689.46 835.02 690.22 835.95 690.22Z" fill="black"/>
<path d="M855.66 690.11C856.538 690.11 857.25 689.398 857.25 688.52C857.25 687.642 856.538 686.93 855.66 686.93C854.782 686.93 854.07 687.642 854.07 688.52C854.07 689.398 854.782 690.11 855.66 690.11Z" fill="black"/>
<path d="M914.8 689.29C915.22 689.29 915.57 688.95 915.57 688.52C915.57 688.09 915.23 687.75 914.8 687.75C914.37 687.75 914.03 688.09 914.03 688.52C914.03 688.95 914.37 689.29 914.8 689.29Z" fill="black"/>
<path d="M934.52 688.85C934.7 688.85 934.85 688.7 934.85 688.52C934.85 688.34 934.7 688.19 934.52 688.19C934.34 688.19 934.19 688.34 934.19 688.52C934.19 688.7 934.34 688.85 934.52 688.85Z" fill="black"/>
<path d="M816.23 708.73C816.501 708.73 816.72 708.511 816.72 708.24C816.72 707.969 816.501 707.75 816.23 707.75C815.959 707.75 815.74 707.969 815.74 708.24C815.74 708.511 815.959 708.73 816.23 708.73Z" fill="black"/>
<path d="M835.95 708.68C836.19 708.68 836.39 708.48 836.39 708.24C836.39 708 836.19 707.8 835.95 707.8C835.71 707.8 835.51 708 835.51 708.24C835.51 708.48 835.71 708.68 835.95 708.68Z" fill="black"/>
<path d="M855.66 708.57C855.84 708.57 855.99 708.42 855.99 708.24C855.99 708.06 855.84 707.91 855.66 707.91C855.48 707.91 855.33 708.06 855.33 708.24C855.33 708.42 855.48 708.57 855.66 708.57Z" fill="black"/>
</svg>
