<svg width="1666" height="256" viewBox="0 0 1666 256" fill="none" xmlns="http://www.w3.org/2000/svg">
<path d="M862.194 78.6836H812.002V40.0886H962.559V78.6836H912.386V214.29H862.194V78.6836Z" fill="#E60000"/>
<path d="M878.239 60.2708H828.047V21.6758H978.623V60.2708H928.431V195.894H878.239V60.2708Z" fill="#FFFC01"/>
<path d="M978.623 21.6757V60.2707H962.578V78.6836H928.431V195.877H912.404V214.29H862.213V78.6836H812.021V40.0886H828.047V21.6757H978.623ZM982.625 18H824.045V36.4129H808V82.3765H858.192V218H916.406V199.587H932.433V82.3765H966.598V63.9636H982.625V18.0171V18Z" fill="black"/>
<path d="M783.849 152.008V104.145H693.905V152.008H783.849Z" fill="#E60000"/>
<path d="M793.375 136.692V88.829H703.431V136.692H793.375Z" fill="#FFFC01"/>
<path d="M793.374 88.829H703.431V104.145H693.905V152.008H783.849V136.692H793.374V88.829ZM795.28 84.9999V140.521H785.754V155.837H692V100.316H701.526V84.9999H795.28Z" fill="black"/>
<path d="M154.863 40.135H207.292C236.369 40.135 261.379 54.1158 261.379 97.9992C261.379 141.883 235.616 159.067 207.292 159.067H190.644V214.213H154.863V40.0381V40.135ZM205.635 122.659C219.797 122.659 226.426 113.533 226.426 97.9992C226.426 82.4653 218.969 76.5427 205.635 76.5427H190.644V122.659H205.635Z" fill="#E60000"/>
<path d="M166.313 21.689H218.667C247.744 21.689 272.754 35.5727 272.754 79.5532C272.754 123.534 246.991 140.621 218.667 140.621H202.019V195.864H166.238V21.689H166.313ZM217.01 104.213C231.172 104.213 237.801 95.0872 237.801 79.5532C237.801 64.0193 230.343 58.0967 217.01 58.0967H202.019V104.213H217.01Z" fill="#FFFC01"/>
<path d="M218.667 21.6894C247.744 21.6894 272.754 35.5731 272.754 79.5536C272.754 100.525 266.501 115.573 256.859 125.573C248.272 148.68 228.46 159.068 207.292 159.068H202.095V195.864H190.644V214.311H154.863V40.1359H166.313V21.6894H218.667ZM202.095 104.214H217.085C220.55 104.214 223.639 103.631 226.2 102.563C226.351 101.107 226.426 99.5536 226.426 98.0002C226.426 82.4662 218.968 76.5437 205.635 76.5437H202.095V104.214ZM218.667 18H163.45V36.4468H152V218H193.507V199.553H204.957V162.757H207.292C231.774 162.757 250.607 150.039 259.119 127.903C269.891 116.447 275.616 99.7478 275.616 79.5536C275.616 57.9032 269.816 41.5923 258.29 31.1069C248.724 22.369 235.39 18 218.667 18ZM204.957 80.233H205.635C221.454 80.233 223.563 89.1652 223.563 98.0002C223.563 98.5827 223.563 99.1652 223.563 99.7477C221.605 100.33 219.496 100.621 217.085 100.621H204.957V80.3302V80.233Z" fill="black"/>
<path d="M82.5213 21.561C99.3909 21.561 118.102 28.8328 131.785 44.1586L112.167 72.1975C112.167 72.1975 112.138 72.1809 112.123 72.1642L99.6248 90.0193C89.582 81.982 80.9132 77.8219 69.9641 77.8219C69.8033 77.8219 69.6571 77.8219 69.4963 77.8219C72.9462 81.5993 79.7438 84.2284 88.8803 88.272L106.905 96.3093C125.382 104.629 135.878 119.156 135.878 142.536C135.878 157.629 130.016 171.84 119.038 181.89C111.159 200.561 92.608 214.372 65.4032 214.372C46.6916 214.372 25.2611 206.585 9.2978 190.227L22.1181 172.655C22.0158 172.572 21.9281 172.489 21.8404 172.389L44.1919 141.754C54.6879 151.372 67.9175 158.111 78.8667 158.111C79.6999 158.111 80.4893 158.078 81.2495 158.045C78.2527 154.134 71.9376 151.655 63.1227 147.645L44.6451 138.809C28.6818 131.537 14.7651 116.211 14.7651 91.7998C14.7651 76.8734 20.9048 63.3282 31.3131 53.7434C39.207 34.8566 58.1378 21.4944 82.492 21.4944M82.5213 18C58.3278 18 37.8329 30.8297 28.828 51.5469C17.7472 62.0136 11.666 76.3077 11.666 91.8497C11.666 113.582 22.2497 131.271 40.815 140.855L19.443 170.142L17.528 172.788L17.8057 173.071L6.915 187.998L5 190.643L7.23661 192.94C22.5567 208.631 44.3234 218 65.447 218C91.38 218 112.314 205.387 121.596 184.22C132.852 173.604 139.051 158.86 139.051 142.586C139.051 118.957 128.642 102.283 108.103 93.0478L103.119 90.8347L112.708 77.1231L112.752 77.1563L114.652 74.4439L134.27 46.405L136.025 43.8923L134.022 41.6292C120.807 26.8526 101.569 18.0166 82.5505 18.0166L82.5213 18Z" fill="black"/>
<path d="M31.664 159.626C42.16 169.227 55.3896 175.983 66.3388 175.983C78.1943 175.983 83.2084 171.557 83.2084 164.035C83.2084 155.982 75.68 153.386 63.1374 147.678L44.6597 138.842C28.6965 131.57 14.7798 116.244 14.7798 91.8331C14.7798 63.0121 37.5845 39.3828 69.9788 39.3828C86.8484 39.3828 105.56 46.6547 119.243 61.9804L99.6249 90.0193C89.582 81.9821 80.9133 77.822 69.9642 77.822C60.3891 77.822 54.4541 81.7158 54.4541 89.2372C54.4541 97.2912 62.8889 100.137 76.3524 106.111L94.3769 114.164C112.854 122.468 123.35 137.012 123.35 160.375C123.35 188.946 102.358 214.389 65.4178 214.389C46.7063 214.389 25.2758 206.601 9.3125 190.244L31.664 159.609V159.626Z" fill="#E60000"/>
<path d="M44.2065 141.787C54.7025 151.405 67.9321 158.145 78.8813 158.145C90.7514 158.145 95.7509 153.735 95.7509 146.197C95.7509 138.143 88.2224 135.564 75.6798 129.84L57.2022 121.004C41.2389 113.732 27.3222 98.4061 27.3222 74.0114C27.3222 45.1903 50.1269 21.561 82.5212 21.561C99.3908 21.561 118.102 28.8329 131.785 44.1586L112.167 72.1975C102.125 64.1436 93.4704 60.0002 82.5066 60.0002C72.9316 60.0002 66.9965 63.894 66.9965 71.4321C66.9965 79.4694 75.4459 82.3315 88.8948 88.3054L106.919 96.3426C125.397 104.663 135.893 119.19 135.893 142.569C135.893 171.124 114.901 196.567 77.9603 196.567C59.2634 196.567 37.8182 188.78 21.8403 172.422L44.1919 141.787H44.2065Z" fill="#FFFC01"/>
<path d="M291.822 40.1353H327.098V214.31H291.822V40.1353Z" fill="#E60000"/>
<path d="M303.11 21.6895H338.386V195.864H303.11V21.6895Z" fill="#FFFC01"/>
<path d="M338.386 21.6894V195.864H327.098V214.311H291.822V40.1359H303.11V21.6894H338.386ZM341.209 18H300.288V36.4468H289V218H329.92V199.553H341.209V18Z" fill="black"/>
<path d="M365.244 40.1353H396.543C428.787 40.1353 450.991 64.7956 450.991 126.446C450.991 188.097 428.846 214.31 398.196 214.31H365.303V40.1353H365.244ZM394.889 177.32C410.184 177.32 422.291 167.126 422.291 126.446C422.291 85.7665 410.243 77.1258 394.889 77.1258H393.236V177.32H394.889Z" fill="#E60000"/>
<path d="M374.22 21.689H405.519C437.763 21.689 459.967 46.3493 459.967 108C459.967 169.65 437.822 195.864 407.173 195.864H374.279V21.689H374.22ZM403.866 158.873C419.161 158.873 431.267 148.679 431.267 108C431.267 67.3202 419.22 58.6792 403.866 58.6792H402.212V158.873H403.866Z" fill="#FFFC01"/>
<path d="M405.519 21.6894C437.763 21.6894 459.967 46.3497 459.967 108C459.967 139.748 454.062 162.078 444.2 176.253C435.401 202.466 418.688 214.311 398.196 214.311H365.303V40.1359H374.279V21.6894H405.578M402.271 158.874H403.925C409.948 158.874 415.44 157.321 419.928 152.952C421.523 146.058 422.35 137.32 422.35 126.35C422.35 92.3689 413.964 80.8156 402.271 77.903V158.874ZM405.519 18H371.976V36.4468H363V218H398.137C420.578 218 437.113 204.408 445.912 178.583C456.66 162.757 462.152 139.068 462.152 108C462.152 76.9322 456.837 54.2136 446.267 38.9709C436.641 25.0874 422.94 18 405.46 18H405.519ZM404.515 155.184V82.369C412.251 85.3787 420.106 94.3107 420.106 126.35C420.106 135.767 419.397 143.825 418.098 150.427C414.554 153.534 410.125 155.087 404.574 155.184H404.515Z" fill="black"/>
<path d="M486.491 40.1355H560.518V78.6792H516.83V105.961H554.195V144.504H516.83V175.572H562.306V214.116H486.491V39.9414V40.1355Z" fill="#E60000"/>
<path d="M496.135 21.6887H570.162V60.2324H526.474V87.6111H563.839V126.155H526.474V157.223H571.951V195.766H496.135V21.5918V21.6887Z" fill="#FFFC01"/>
<path d="M570.162 21.6894V60.2331H560.454V78.6796H526.41V87.6118H563.775V126.155H554.067V144.602H526.41V157.224H571.887V195.767H562.178V214.214H486.363V40.039H496.072V21.5925H570.098M572.589 18H493.708V36.4468H484V218H564.669V199.553H574.378V153.631H528.901V148.291H556.558V129.845H566.266V83.9224H528.901V82.369H562.945V63.9224H572.653V18H572.589Z" fill="black"/>
<path d="M650.871 214.31L633.984 155.864H624.037V214.31H598.077V40.1353H635.186C656.282 40.1353 674.427 53.0481 674.427 96.4461C674.427 121.398 668.087 137.708 658.578 146.834L679.837 214.31H650.871ZM624.037 119.456H633.382C643.657 119.456 649.068 111.398 649.068 96.4461C649.068 81.4947 643.657 76.6402 633.382 76.6402H624.037V119.553V119.456Z" fill="#E60000"/>
<path d="M659.179 195.864L642.291 137.417H632.344V195.864H606.384V21.689H643.493C664.589 21.689 682.734 34.5046 682.734 77.9026C682.734 102.854 676.394 119.165 666.885 128.291L688.145 195.864H659.179ZM632.29 101.009H641.635C651.91 101.009 657.321 92.9513 657.321 77.9998C657.321 63.0484 651.91 58.1939 641.635 58.1939H632.29V101.106V101.009Z" fill="#FFFC01"/>
<path d="M643.493 21.6894C664.589 21.6894 682.734 34.505 682.734 77.903C682.734 98.6797 678.307 113.437 671.366 123.146C670.492 126.544 669.399 129.651 668.196 132.466L688.145 195.864H674.044L679.837 214.311H650.872L633.984 155.864H632.344V195.864H624.037V214.311H598.077V40.1359H606.384V21.6894H643.493ZM632.29 101.01H641.635C644.477 101.01 646.882 100.427 648.959 99.1652C648.959 98.2914 649.013 97.3204 649.013 96.3496C649.013 81.301 643.603 76.5437 633.328 76.5437H632.29V101.01ZM643.493 18H604.307V36.4468H596V218H626.059V199.553H634.366V165.379L649.013 215.961L649.614 218H683.39L681.641 212.563L677.542 199.651H691.642L689.894 194.214L670.547 132.854C671.421 130.621 672.241 128.194 672.897 125.67C680.603 114.699 684.702 98.1942 684.702 78.0971C684.702 38.8738 670.437 18.1944 643.439 18.1944L643.493 18ZM634.366 97.3205V80.233C644.805 80.6214 646.991 86.6408 646.991 96.3496C645.406 97.0292 643.603 97.3205 641.69 97.3205H634.421H634.366Z" fill="black"/>
<path d="M1003.54 126.09C1003.54 70.4923 1026.08 39.354 1059.25 39.354C1092.42 39.354 1114.95 70.7745 1114.95 126.09C1114.95 181.405 1092.42 214.33 1059.25 214.33C1026.08 214.33 1003.54 181.593 1003.54 126.09ZM1082.52 126.09C1082.52 95.4217 1073.69 77.83 1059.25 77.83C1044.8 77.83 1035.97 95.5158 1035.97 126.09C1035.97 156.663 1044.87 175.949 1059.25 175.949C1073.62 175.949 1082.52 156.758 1082.52 126.09Z" fill="#E60000"/>
<path d="M1013.64 108.31C1013.64 52.7127 1036.18 21.5745 1069.34 21.5745C1102.51 21.5745 1125.05 52.995 1125.05 108.31C1125.05 163.625 1102.51 196.551 1069.34 196.551C1036.18 196.551 1013.64 163.813 1013.64 108.31ZM1092.68 108.31C1092.68 77.6422 1083.86 60.0504 1069.41 60.0504C1054.97 60.0504 1046.14 77.7363 1046.14 108.31C1046.14 138.884 1054.97 158.169 1069.41 158.169C1083.86 158.169 1092.68 138.978 1092.68 108.31Z" fill="#FFFC01"/>
<path d="M1069.41 21.5748C1102.65 21.5748 1125.12 52.9953 1125.12 108.31C1125.12 139.167 1118.16 163.061 1106.26 178.113C1096.76 201.537 1080.11 214.425 1059.25 214.425C1026.01 214.425 1003.54 181.688 1003.54 126.184C1003.54 95.6105 1010.36 72.3744 1022.07 57.699C1031.49 34.1806 1048.28 21.5748 1069.41 21.5748ZM1069.41 158.169C1073.02 158.169 1076.3 156.946 1079.18 154.689C1081.38 146.975 1082.52 137.285 1082.52 126.184C1082.52 95.5164 1073.69 77.9247 1059.25 77.9247C1055.5 77.9247 1052.09 79.1477 1049.15 81.4995C1047.14 88.8372 1046.14 97.8681 1046.14 108.404C1046.14 139.072 1054.97 158.263 1069.41 158.263M1069.41 18C1047.41 18 1029.89 31.2644 1020.06 55.4413C1007.55 71.3397 1001 95.7986 1001 126.184C1001 154.03 1006.55 177.266 1017.05 193.541C1027.42 209.533 1041.99 218 1059.25 218C1080.85 218 1098.23 204.642 1108.27 180.371C1120.97 164.002 1127.66 139.167 1127.66 108.31C1127.66 80.6529 1122.11 57.6989 1111.54 41.8005C1101.24 26.2784 1086.67 18 1069.35 18H1069.41ZM1051.22 83.8513C1053.63 82.2521 1056.3 81.4053 1059.25 81.4053C1072.22 81.4053 1079.98 98.1504 1079.98 126.09C1079.98 136.062 1079.04 144.811 1077.1 152.055C1074.76 153.654 1072.15 154.5 1069.35 154.5C1056.57 154.5 1048.61 136.815 1048.61 108.216C1048.61 98.809 1049.48 90.6246 1051.16 83.8513H1051.22Z" fill="black"/>
<path d="M1226.75 177.32H1182.76L1175.05 214.31H1132.47L1180.31 40.1353H1230.61L1278.45 214.31H1234.46L1226.75 177.32ZM1219.21 141.689L1216.59 129.65C1212.73 113.048 1208.88 91.8829 1205.02 74.5043H1204.06C1200.64 92.1742 1196.78 113.048 1192.93 129.65L1190.3 141.689H1219.3H1219.21Z" fill="#E60000"/>
<path d="M1240.07 158.873H1196.08L1188.37 195.864H1145.79L1193.63 21.689H1243.92L1291.77 195.864H1247.78L1240.07 158.873ZM1232.53 123.243L1229.9 111.204C1226.05 94.6016 1222.19 73.4366 1218.34 56.058H1217.37C1213.96 73.7279 1210.1 94.6016 1206.25 111.204L1203.62 123.243H1232.62H1232.53Z" fill="#FFFC01"/>
<path d="M1243.92 21.6894L1291.77 195.864H1273.45L1278.54 214.311H1234.55L1226.84 177.32H1192.23L1188.37 195.864H1178.91L1175.05 214.311H1132.47L1180.31 40.1359H1188.55L1193.63 21.6894H1243.92ZM1203.53 123.243H1215.18C1213.34 114.699 1211.42 105.282 1209.58 95.9611C1208.44 101.301 1207.39 106.447 1206.25 111.204L1203.62 123.243M1246.38 18H1191.18L1190.47 20.6215L1186.09 36.4468H1177.86L1177.16 39.0681L1129.31 213.243L1128 218H1177.68L1178.3 215.184L1181.54 199.651H1191L1191.61 196.835L1194.94 181.107H1224.21L1231.39 215.184L1232.01 218H1283.18L1281.87 213.243L1278.1 199.553H1296.41L1295.1 194.796L1247.25 20.6215L1246.55 18H1246.38ZM1207.74 119.554L1209.4 112.175C1209.93 114.699 1210.45 117.126 1210.98 119.554H1207.82H1207.74Z" fill="black"/>
<path d="M1402.17 21.561C1421.14 21.561 1442.18 28.8328 1457.56 44.1586L1435.5 72.1975C1435.5 72.1975 1435.47 72.1809 1435.45 72.1642L1421.4 90.0193C1410.11 81.982 1400.36 77.8219 1388.05 77.8219C1387.87 77.8219 1387.7 77.8219 1387.52 77.8219C1391.4 81.5993 1399.05 84.2284 1409.32 88.272L1429.59 96.3093C1450.36 104.629 1462.17 119.156 1462.17 142.536C1462.17 157.629 1455.57 171.84 1443.23 181.89C1434.37 200.561 1413.51 214.372 1382.92 214.372C1361.88 214.372 1337.78 206.585 1319.83 190.227L1334.25 172.655C1334.13 172.572 1334.03 172.489 1333.94 172.389L1359.07 141.754C1370.87 151.372 1385.75 158.111 1398.06 158.111C1399 158.111 1399.88 158.078 1400.74 158.045C1397.37 154.134 1390.27 151.655 1380.36 147.645L1359.58 138.809C1341.63 131.537 1325.98 116.211 1325.98 91.7998C1325.98 76.8734 1332.88 63.3282 1344.59 53.7434C1353.46 34.8566 1374.75 21.4944 1402.14 21.4944M1402.17 18C1374.96 18 1351.92 30.8297 1341.79 51.5469C1329.33 62.0136 1322.5 76.3077 1322.5 91.8497C1322.5 113.582 1334.4 131.271 1355.27 140.855L1331.24 170.142L1329.09 172.788L1329.4 173.071L1317.15 187.998L1315 190.643L1317.51 192.94C1334.74 208.631 1359.22 218 1382.97 218C1412.13 218 1435.67 205.387 1446.11 184.22C1458.76 173.604 1465.73 158.86 1465.73 142.586C1465.73 118.957 1454.03 102.283 1430.93 93.0478L1425.33 90.8347L1436.11 77.1231L1436.16 77.1563L1438.3 74.4439L1460.36 46.405L1462.33 43.8923L1460.08 41.6292C1445.22 26.8526 1423.59 18.0166 1402.2 18.0166L1402.17 18Z" fill="black"/>
<path d="M1344.98 159.626C1356.78 169.227 1371.66 175.983 1383.97 175.983C1397.3 175.983 1402.94 171.557 1402.94 164.035C1402.94 155.982 1394.48 153.386 1380.37 147.678L1359.59 138.842C1341.65 131.57 1326 116.244 1326 91.8331C1326 63.0121 1351.64 39.3828 1388.06 39.3828C1407.03 39.3828 1428.07 46.6547 1443.46 61.9804L1421.4 90.0193C1410.11 81.9821 1400.36 77.822 1388.05 77.822C1377.28 77.822 1370.61 81.7158 1370.61 89.2372C1370.61 97.2912 1380.09 100.137 1395.23 106.111L1415.5 114.164C1436.28 122.468 1448.08 137.012 1448.08 160.375C1448.08 188.946 1424.47 214.389 1382.94 214.389C1361.9 214.389 1337.8 206.601 1319.85 190.244L1344.98 159.609V159.626Z" fill="#E60000"/>
<path d="M1359.09 141.787C1370.89 151.405 1385.76 158.145 1398.08 158.145C1411.42 158.145 1417.04 153.735 1417.04 146.197C1417.04 138.143 1408.58 135.564 1394.48 129.84L1373.7 121.004C1355.75 113.732 1340.1 98.4061 1340.1 74.0114C1340.1 45.1903 1365.74 21.561 1402.17 21.561C1421.14 21.561 1442.18 28.8329 1457.56 44.1586L1435.5 72.1975C1424.21 64.1436 1414.48 60.0002 1402.15 60.0002C1391.39 60.0002 1384.71 63.894 1384.71 71.4321C1384.71 79.4694 1394.21 82.3315 1409.33 88.3054L1429.6 96.3426C1450.38 104.663 1462.18 119.19 1462.18 142.569C1462.18 171.124 1438.58 196.567 1397.04 196.567C1376.02 196.567 1351.9 188.78 1333.94 172.422L1359.07 141.787H1359.09Z" fill="#FFFC01"/>
<path d="M1530.19 78.6836H1480V40.0886H1630.56V78.6836H1580.39V214.29H1530.19V78.6836Z" fill="#E60000"/>
<path d="M1546.24 60.2708H1496.05V21.6758H1646.62V60.2708H1596.43V195.894H1546.24V60.2708Z" fill="#FFFC01"/>
<path d="M1646.62 21.6757V60.2707H1630.58V78.6836H1596.43V195.877H1580.4V214.29H1530.21V78.6836H1480.02V40.0886H1496.05V21.6757H1646.62ZM1650.62 18H1492.04V36.4129H1476V82.3765H1526.19V218H1584.41V199.587H1600.43V82.3765H1634.6V63.9636H1650.62V18.0171V18Z" fill="black"/>
</svg>
