<svg xmlns="http://www.w3.org/2000/svg" width="12000" height="1200" viewBox="0 0 12000 1200" fill="none">
<g clip-path="url(#clip0_37_2)">
<path d="M7234.9 361.693H6942.85V131.654H7818.89V361.693H7526.95V1169.95H7234.9V361.693Z" fill="#E60000"/>
<path d="M7328.26 251.947H7036.21V21.9092H7912.36V251.947H7620.31V1060.3H7328.26V251.947Z" fill="#FFFC01"/>
<path d="M7912.36 21.9083V251.947H7819V361.693H7620.31V1060.2H7527.05V1169.95H7235.01V361.693H6942.96V131.655H7036.21V21.9083H7912.36ZM7935.65 0H7012.92V109.747H6919.56V383.704H7211.61V1192.06H7550.34V1082.32H7643.6V383.704H7842.39V273.957H7935.65V0.101918V0Z" fill="black"/>
<path d="M6753.93 773.23V504.747H6090.26V773.23H6753.93Z" fill="#E60000"/>
<path d="M6824.22 687.316V418.833H6160.55V687.316H6824.22Z" fill="#FFFC01"/>
<path d="M6824.21 418.833H6160.55V504.747H6090.26V773.23H6753.93V687.317H6824.21V418.833ZM6838.27 397.354V708.795H6767.98V794.709H6076.21V483.269H6146.5V397.354H6838.27Z" fill="black"/>
<path d="M1120.91 131.931H1551.86C1790.86 131.931 1996.44 215.261 1996.44 476.82C1996.44 738.381 1784.67 840.803 1551.86 840.803H1415.02V1169.49H1120.91V131.354V131.931ZM1538.24 623.8C1654.65 623.8 1709.14 569.406 1709.14 476.82C1709.14 384.233 1647.84 348.932 1538.24 348.932H1415.02V623.8H1538.24Z" fill="#E60000"/>
<path d="M1215.02 21.9873H1645.36C1884.36 21.9873 2089.94 104.739 2089.94 366.876C2089.94 629.015 1878.17 730.859 1645.36 730.859H1508.52V1060.12H1214.41V21.9873H1215.02ZM1631.74 513.856C1748.15 513.856 1802.63 459.464 1802.63 366.876C1802.63 274.289 1741.33 238.989 1631.74 238.989H1508.52V513.856H1631.74Z" fill="#FFFC01"/>
<path d="M1645.36 21.99C1884.36 21.99 2089.94 104.741 2089.94 366.879C2089.94 491.875 2038.54 581.566 1959.29 641.169C1888.7 778.894 1725.85 840.809 1551.86 840.809H1509.14V1060.12H1415.02V1170.07H1120.91V131.937H1215.02V21.99H1645.36ZM1509.14 513.862H1632.36C1660.84 513.862 1686.23 510.388 1707.28 504.022C1708.52 495.344 1709.14 486.085 1709.14 476.826C1709.14 384.239 1647.83 348.939 1538.24 348.939H1509.14V513.862ZM1645.36 0H1191.49V109.949H1097.38V1192.06H1438.55V1082.11H1532.67V862.797H1551.86C1753.09 862.797 1907.9 786.994 1977.86 655.056C2066.41 586.775 2113.46 487.242 2113.46 366.879C2113.46 237.836 2065.79 140.617 1971.05 78.1212C1892.42 26.0406 1782.82 0 1645.36 0ZM1532.67 370.928H1538.24C1668.27 370.928 1685.6 424.167 1685.6 476.826C1685.6 480.298 1685.6 483.77 1685.6 487.242C1669.51 490.713 1652.17 492.447 1632.36 492.447H1532.67V371.507V370.928Z" fill="black"/>
<path d="M587.601 21.2247C715.47 21.2247 857.298 64.5669 961.013 155.913L812.311 323.034C812.311 323.034 812.091 322.935 811.978 322.836L717.243 429.258C641.12 381.353 575.412 356.557 492.419 356.557C491.2 356.557 490.092 356.557 488.873 356.557C515.023 379.072 566.548 394.742 635.801 418.843L772.426 466.748C912.479 516.336 992.037 602.921 992.037 742.273C992.037 832.232 947.604 916.934 864.392 976.836C804.671 1088.12 664.057 1170.44 457.848 1170.44C316.017 1170.44 153.576 1124.03 32.5767 1026.53L129.753 921.792C128.977 921.297 128.313 920.803 127.648 920.207L297.069 737.612C376.627 794.939 476.906 835.105 559.899 835.105C566.215 835.105 572.198 834.909 577.961 834.712C555.245 811.401 507.378 796.626 440.562 772.725L300.504 720.059C179.505 676.716 74.0181 585.368 74.0181 439.87C74.0181 350.904 120.556 270.17 199.45 213.042C259.284 100.471 402.777 20.8277 587.379 20.8277M587.601 0C404.217 0 248.869 76.469 180.613 199.95C96.622 262.335 50.5274 347.532 50.5274 440.167C50.5274 569.699 130.75 675.131 271.473 732.254L109.476 906.814L94.9605 922.585L97.0654 924.272L14.5154 1013.24L0 1029.01L16.9532 1042.7C133.077 1136.22 298.066 1192.06 458.18 1192.06C654.748 1192.06 813.425 1116.89 883.782 990.723C969.1 927.448 1016.09 839.57 1016.09 742.571C1016.09 601.735 937.189 502.353 781.506 447.308L743.728 434.118L816.412 352.392L816.745 352.59L831.147 336.423L979.849 169.303L993.151 154.326L977.969 140.837C877.801 52.7643 731.98 0.0989391 587.822 0.0989391L587.601 0Z" fill="black"/>
<path d="M202.109 844.135C281.668 901.36 381.946 941.628 464.94 941.628C554.803 941.628 592.809 915.248 592.809 870.414C592.809 822.416 535.745 806.943 440.673 772.921L300.615 720.256C179.616 676.913 74.1295 585.565 74.1295 440.068C74.1295 268.286 246.986 127.448 492.53 127.448C620.4 127.448 762.231 170.791 865.946 262.137L717.244 429.258C641.12 381.353 575.412 356.558 492.42 356.558C419.842 356.558 374.855 379.766 374.855 424.596C374.855 472.6 438.79 489.562 540.841 525.169L677.465 573.168C817.518 622.662 897.077 709.349 897.077 848.6C897.077 1018.89 737.96 1170.54 457.959 1170.54C316.128 1170.54 153.688 1124.12 32.6882 1026.63L202.109 844.034V844.135Z" fill="#E60000"/>
<path d="M297.18 737.809C376.738 795.135 477.017 835.308 560.01 835.308C649.984 835.308 687.879 809.023 687.879 764.094C687.879 716.09 630.814 700.718 535.743 666.601L395.685 613.936C274.686 570.593 169.199 479.245 169.199 333.845C169.199 162.063 342.056 21.2246 587.6 21.2246C715.469 21.2246 857.297 64.5674 961.013 155.913L812.311 323.034C736.194 275.03 670.593 250.334 587.489 250.334C514.912 250.334 469.925 273.543 469.925 318.472C469.925 366.377 533.97 383.436 635.911 419.042L772.532 466.946C912.592 516.539 992.151 603.124 992.151 742.47C992.151 912.667 833.034 1064.32 553.029 1064.32C411.309 1064.32 248.757 1017.9 127.647 920.403L297.069 737.809H297.18Z" fill="#FFFC01"/>
<path d="M2222.21 131.933H2565.48V1170.07H2222.21V131.933Z" fill="#E60000"/>
<path d="M2332.05 21.9912H2675.32V1060.13H2332.05V21.9912Z" fill="#FFFC01"/>
<path d="M2675.32 21.99V1060.12H2565.48V1170.07H2222.21V131.937H2332.05V21.99H2675.32ZM2702.79 0H2304.59V109.949H2194.75V1192.06H2592.94V1082.11H2702.79V0Z" fill="black"/>
<path d="M2807.08 131.933H3127.82C3458.25 131.933 3685.79 278.916 3685.79 646.371C3685.79 1013.83 3458.86 1170.07 3144.76 1170.07H2807.68V131.933H2807.08ZM3110.87 949.596C3267.61 949.596 3391.68 888.837 3391.68 646.371C3391.68 403.909 3268.22 352.408 3110.87 352.408H3093.93V949.596H3110.87Z" fill="#E60000"/>
<path d="M2899.06 21.9873H3219.81C3550.24 21.9873 3777.78 168.97 3777.78 536.428C3777.78 903.881 3550.84 1060.12 3236.76 1060.12H2899.67V21.9873H2899.06ZM3202.87 839.647C3359.61 839.647 3483.67 778.887 3483.67 536.428C3483.67 293.964 3360.21 242.46 3202.87 242.46H3185.92V839.647H3202.87Z" fill="#FFFC01"/>
<path d="M3219.81 21.99C3550.24 21.99 3777.78 168.973 3777.78 536.428C3777.78 725.656 3717.26 858.75 3616.2 943.237C3526.03 1099.48 3354.76 1170.07 3144.76 1170.07H2807.68V131.937H2899.67V21.99H3220.41M3186.52 839.653H3203.47C3265.19 839.653 3321.48 830.397 3367.47 804.356C3383.81 763.266 3392.29 711.184 3392.29 645.8C3392.29 443.262 3306.35 374.401 3186.52 357.041V839.653ZM3219.81 0H2876.07V109.949H2784.08V1192.06H3144.16C3374.13 1192.06 3543.57 1111.05 3633.75 957.125C3743.89 862.797 3800.17 721.603 3800.17 536.428C3800.17 351.254 3745.7 215.844 3637.38 124.993C3538.74 42.2431 3398.33 0 3219.2 0H3219.81ZM3209.52 817.66V383.659C3288.79 401.598 3369.29 454.836 3369.29 645.8C3369.29 701.928 3362.03 749.956 3348.71 789.306C3312.4 807.825 3267.01 817.081 3210.12 817.66H3209.52Z" fill="black"/>
<path d="M3909.46 131.934H4741.72V361.667H4250.55V524.275H4670.63V754.003H4250.55V939.178H4761.82V1168.91H3909.46V130.777V131.934Z" fill="#E60000"/>
<path d="M4017.89 21.9858H4850.15V251.718H4358.98V414.904H4779.06V644.638H4358.98V829.813H4870.26V1059.54H4017.89V21.4082V21.9858Z" fill="#FFFC01"/>
<path d="M4850.15 21.99V251.722H4741V361.669H4358.26V414.908H4778.34V644.638H4669.2V754.587H4358.26V829.819H4869.54V1059.55H4760.38V1169.5H3908.02V131.359H4017.18V21.4124H4849.43M4877.43 0H3990.6V109.949H3881.46V1192.06H4788.39V1082.11H4897.54V808.403H4386.26V776.575H4697.2V666.631H4806.34V392.918H4386.26V383.659H4769.01V273.712H4878.15V0H4877.43Z" fill="black"/>
<path d="M5561.77 1170.07L5382.37 821.712H5276.69V1170.07H5000.9V131.933H5395.14C5619.26 131.933 5812.03 208.897 5812.03 467.563C5812.03 616.284 5744.67 713.496 5643.65 767.89L5869.5 1170.07H5561.77ZM5276.69 604.709H5375.97C5485.13 604.709 5542.62 556.681 5542.62 467.563C5542.62 378.448 5485.13 349.513 5375.97 349.513H5276.69V605.287V604.709Z" fill="#E60000"/>
<path d="M5650.04 1060.12L5470.62 711.762H5364.94V1060.12H5089.15V21.9873H5483.39C5707.51 21.9873 5900.28 98.3723 5900.28 357.038C5900.28 505.756 5832.93 602.975 5731.9 657.369L5957.77 1060.12H5650.04ZM5364.37 494.759H5463.65C5572.81 494.759 5630.3 446.733 5630.3 357.617C5630.3 268.502 5572.81 239.568 5463.65 239.568H5364.37V495.337V494.759Z" fill="#FFFC01"/>
<path d="M5483.39 21.99C5707.51 21.99 5900.28 98.375 5900.28 357.041C5900.28 480.876 5853.25 568.834 5779.51 626.703C5770.22 646.956 5758.61 665.475 5745.83 682.253L5957.77 1060.12H5807.96L5869.5 1170.07H5561.78L5382.37 821.712H5364.95V1060.12H5276.69V1170.07H5000.9V131.937H5089.15V21.99H5483.39ZM5364.37 494.766H5463.65C5493.84 494.766 5519.39 491.291 5541.46 483.77C5541.46 478.562 5542.03 472.774 5542.03 466.988C5542.03 377.294 5484.56 348.939 5375.4 348.939H5364.37V494.766ZM5483.39 0H5067.08V109.949H4978.83V1192.06H5298.17V1082.11H5386.43V878.425L5542.03 1179.91L5548.42 1192.06H5907.25L5888.67 1159.66L5845.12 1082.7H5994.92L5976.35 1050.29L5770.81 684.566C5780.09 671.256 5788.81 656.791 5795.77 641.747C5877.64 576.356 5921.19 477.982 5921.19 358.197C5921.19 124.414 5769.64 1.15869 5482.82 1.15869L5483.39 0ZM5386.43 472.775V370.928C5497.33 373.243 5520.55 409.121 5520.55 466.988C5503.71 471.039 5484.56 472.775 5464.24 472.775H5387.01H5386.43Z" fill="black"/>
<path d="M7956.02 644.25C7956.02 312.87 8136.84 127.276 8402.94 127.276C8669.03 127.276 8849.77 314.552 8849.77 644.25C8849.77 973.945 8669.03 1170.19 8402.94 1170.19C8136.84 1170.19 7956.02 975.065 7956.02 644.25ZM8589.61 644.25C8589.61 461.457 8518.78 356.605 8402.94 356.605C8287.02 356.605 8216.18 462.018 8216.18 644.25C8216.18 826.475 8287.58 941.425 8402.94 941.425C8518.22 941.425 8589.61 827.041 8589.61 644.25Z" fill="#E60000"/>
<path d="M8037.05 538.276C8037.05 206.899 8217.87 21.3057 8483.88 21.3057C8749.98 21.3057 8930.8 208.582 8930.8 538.276C8930.8 867.971 8749.98 1064.22 8483.88 1064.22C8217.87 1064.22 8037.05 869.092 8037.05 538.276ZM8671.12 538.276C8671.12 355.487 8600.36 250.634 8484.44 250.634C8368.6 250.634 8297.77 356.048 8297.77 538.276C8297.77 720.507 8368.6 835.452 8484.44 835.452C8600.36 835.452 8671.12 721.067 8671.12 538.276Z" fill="#FFFC01"/>
<path d="M8484.44 21.3069C8751.1 21.3069 8931.36 208.583 8931.36 538.276C8931.36 722.193 8875.52 864.609 8780.06 954.324C8703.85 1093.94 8570.28 1170.75 8402.94 1170.75C8136.28 1170.75 7956.02 975.632 7956.02 644.81C7956.02 462.583 8010.74 324.088 8104.67 236.618C8180.24 96.4414 8314.94 21.3069 8484.44 21.3069ZM8484.44 835.451C8513.4 835.451 8539.72 828.162 8562.82 814.709C8580.47 768.731 8589.61 710.976 8589.61 644.81C8589.61 462.022 8518.78 357.17 8402.94 357.17C8372.86 357.17 8345.5 364.459 8321.92 378.477C8305.79 422.212 8297.77 476.039 8297.77 538.836C8297.77 721.627 8368.6 836.011 8484.44 836.011M8484.44 0C8307.96 0 8167.41 79.06 8088.55 223.162C7988.19 317.921 7935.65 463.704 7935.65 644.81C7935.65 810.781 7980.17 949.275 8064.4 1046.28C8147.59 1141.6 8264.48 1192.06 8402.94 1192.06C8576.22 1192.06 8715.64 1112.44 8796.19 967.782C8898.07 870.218 8951.74 722.193 8951.74 538.276C8951.74 373.431 8907.21 236.618 8822.42 141.858C8739.79 49.3418 8622.91 0 8483.96 0H8484.44ZM8338.52 392.494C8357.85 382.963 8379.27 377.915 8402.94 377.915C8506.99 377.915 8569.24 477.721 8569.24 644.25C8569.24 703.686 8561.7 755.833 8546.13 799.01C8527.36 808.54 8506.42 813.583 8483.96 813.583C8381.44 813.583 8317.58 708.175 8317.58 537.716C8317.58 481.647 8324.56 432.865 8338.04 392.494H8338.52Z" fill="black"/>
<path d="M9547.54 949.596H9282.13L9235.61 1170.07H8978.71L9267.34 131.933H9570.82L9859.46 1170.07H9594.05L9547.54 949.596ZM9502.04 737.224L9486.24 665.468C9462.95 566.515 9439.72 440.365 9416.43 336.783H9410.64C9390 442.101 9366.71 566.515 9343.49 665.468L9327.62 737.224H9502.59H9502.04Z" fill="#E60000"/>
<path d="M9627.9 839.647H9362.49L9315.97 1060.12H9059.07L9347.71 21.9873H9651.13L9939.83 1060.12H9674.42L9627.9 839.647ZM9582.41 627.281L9566.54 555.525C9543.31 456.569 9520.02 330.419 9496.79 226.837H9490.94C9470.37 332.155 9447.08 456.569 9423.85 555.525L9407.98 627.281H9582.95H9582.41Z" fill="#FFFC01"/>
<path d="M9651.13 21.99L9939.83 1060.12H9829.3L9860.01 1170.07H9594.6L9548.08 949.597H9339.26L9315.97 1060.12H9258.9L9235.61 1170.07H8978.71L9267.34 131.937H9317.06L9347.71 21.99H9651.13ZM9407.44 627.281H9477.73C9466.63 576.356 9455.04 520.228 9443.94 464.672C9437.06 496.5 9430.73 527.172 9423.85 555.525L9407.98 627.281M9665.97 0H9332.93L9328.64 15.625L9302.22 109.949H9252.56L9248.34 125.572L8959.64 1163.71L8951.74 1192.06H9251.48L9255.22 1175.28L9274.77 1082.7H9331.84L9335.52 1065.91L9355.61 972.169H9532.21L9575.53 1175.28L9579.27 1192.06H9888L9880.1 1163.71L9857.35 1082.11H9967.82L9959.92 1053.76L9671.22 15.625L9667 0H9665.97ZM9432.84 605.294L9442.86 561.312C9446.05 576.356 9449.19 590.822 9452.39 605.294H9433.32H9432.84Z" fill="black"/>
<path d="M10555.4 21.2247C10683.3 21.2247 10825.2 64.5669 10928.8 155.913L10780.1 323.034C10780.1 323.034 10779.9 322.935 10779.8 322.836L10685.1 429.258C10609 381.353 10543.2 356.557 10460.3 356.557C10459 356.557 10457.9 356.557 10456.7 356.557C10482.8 379.072 10534.4 394.742 10603.6 418.843L10740.3 466.748C10880.3 516.336 10959.9 602.921 10959.9 742.273C10959.9 832.232 10915.4 916.934 10832.2 976.836C10772.5 1088.12 10631.9 1170.44 10425.7 1170.44C10283.8 1170.44 10121.4 1124.03 10000.4 1026.53L10097.6 921.792C10096.8 921.297 10096.1 920.803 10095.5 920.207L10264.9 737.612C10344.4 794.939 10444.8 835.105 10527.7 835.105C10534.1 835.105 10540 834.909 10545.8 834.712C10523.1 811.401 10475.2 796.626 10408.4 772.725L10268.3 720.059C10147.3 676.716 10041.8 585.368 10041.8 439.87C10041.8 350.904 10088.4 270.17 10167.3 213.042C10227.1 100.471 10370.6 20.8277 10555.2 20.8277M10555.4 0C10372 0 10216.7 76.469 10148.4 199.95C10064.4 262.335 10018.4 347.532 10018.4 440.167C10018.4 569.699 10098.6 675.131 10239.3 732.254L10077.3 906.814L10062.8 922.585L10064.9 924.272L9982.32 1013.24L9967.82 1029.01L9984.74 1042.7C10100.9 1136.22 10265.9 1192.06 10426 1192.06C10622.6 1192.06 10781.3 1116.89 10851.7 990.723C10936.9 927.448 10983.9 839.57 10983.9 742.571C10983.9 601.735 10905 502.353 10749.3 447.308L10711.6 434.118L10784.2 352.392L10784.6 352.59L10799 336.423L10947.7 169.303L10961 154.326L10945.8 140.837C10845.7 52.7643 10699.8 0.0989391 10555.6 0.0989391L10555.4 0Z" fill="black"/>
<path d="M10169.9 844.135C10249.5 901.36 10349.8 941.628 10432.8 941.628C10522.6 941.628 10560.6 915.248 10560.6 870.414C10560.6 822.416 10503.6 806.943 10408.5 772.921L10268.4 720.256C10147.5 676.913 10042 585.565 10042 440.068C10042 268.286 10214.8 127.448 10460.3 127.448C10588.2 127.448 10730 170.791 10833.8 262.137L10685.1 429.258C10609 381.353 10543.2 356.558 10460.3 356.558C10387.7 356.558 10342.7 379.766 10342.7 424.596C10342.7 472.6 10406.6 489.562 10508.7 525.169L10645.3 573.168C10785.4 622.662 10864.9 709.349 10864.9 848.6C10864.9 1018.89 10705.8 1170.54 10425.8 1170.54C10284 1170.54 10121.5 1124.12 10000.5 1026.63L10169.9 844.034V844.135Z" fill="#E60000"/>
<path d="M10265 737.809C10344.6 795.136 10444.8 835.308 10527.9 835.308C10617.8 835.308 10655.7 809.023 10655.7 764.094C10655.7 716.09 10598.7 700.718 10503.6 666.601L10363.5 613.936C10242.5 570.593 10137 479.245 10137 333.845C10137 162.063 10309.9 21.2246 10555.4 21.2246C10683.3 21.2246 10825.2 64.5674 10928.8 155.913L10780.1 323.034C10704 275.03 10638.4 250.334 10555.3 250.334C10482.8 250.334 10437.7 273.543 10437.7 318.472C10437.7 366.377 10501.8 383.436 10603.7 419.042L10740.4 466.946C10880.4 516.539 10960 603.124 10960 742.47C10960 912.667 10800.9 1064.32 10520.9 1064.32C10379.2 1064.32 10216.6 1017.9 10095.5 920.403L10264.9 737.809H10265Z" fill="#FFFC01"/>
<path d="M11299.2 361.693H11007.2V131.654H11883.3V361.693H11591.3V1169.95H11299.2V361.693Z" fill="#E60000"/>
<path d="M11392.6 251.947H11100.6V21.9092H11976.7V251.947H11684.7V1060.3H11392.6V251.947Z" fill="#FFFC01"/>
<path d="M11976.7 21.9083V251.947H11883.4V361.693H11684.7V1060.2H11591.4V1169.95H11299.4V361.693H11007.3V131.655H11100.6V21.9083H11976.7ZM12000 0H11077.2V109.747H10983.9V383.704H11276V1192.06H11614.7V1082.32H11708V383.704H11906.8V273.957H12000V0.101918V0Z" fill="black"/>
</g>
<defs>
<clipPath id="clip0_37_2">
<rect width="12000" height="1200" fill="white"/>
</clipPath>
</defs>
</svg>
