<svg width="9089" height="1663" viewBox="0 0 9089 1663" fill="none" xmlns="http://www.w3.org/2000/svg">
<path d="M324.801 1316.85L267.178 1283.97V1131.17L149.868 1097.1L133.313 442.472L48.9502 395.506L32.3954 366.163L16 347.357L32.3954 338H384.491V1178.32H433.833L551.146 1111.36L619.114 1054.95L717.961 997.354V433.208L652.064 395.597L635.51 366.254L610.837 338.091H965L936.188 1080.84L853.897 1140.8L652.064 1293.6H602.719L567.701 1284.24H501.801L351.541 1370H295.989L324.801 1317.13V1316.85Z" fill="#0E084F" stroke="#231F20" stroke-miterlimit="10"/>
<path d="M1220.05 855.032L1141.62 810.941V788.34L1102.41 756.541L1220.05 746.313V446.721L1002 354.415V338H1798.43L1845.03 357.509L1818.13 380.108L1678.51 438.553H1541.35V746.313L1860 755.511V771.927L1818.32 788.34L1739.89 843.77L1561.05 857.094V1222.34H1818.32V1246.93L1759.59 1272.54H1678.7L1519.38 1329.95L1460.65 1313.54H1401.92L1267.03 1370L1220.43 1329.95V854.953L1220.05 855.032Z" fill="#0E084F" stroke="#0E084F" stroke-width="20" stroke-miterlimit="10"/>
<path d="M2046.88 1273.29L1967.53 1189.75V451.903L1944.47 425.901L1931.54 372.723L1897 355.363V338H2107.49L2132.01 372.723L2237.2 637.518L2248.68 664.609L2280.44 745.968L2313.64 796.964H2330.92V381.363L2294.92 355.363V338H2553V399.815L2518.46 451.903V1352.55H2476.67L2447.81 1308.1L2423.29 1251.65L2377.16 1228.84L2362.79 1182.2L2300.83 1136.66L2143.71 778.596H2119.2V1370H2096.13L2073.06 1352.64L2047.1 1273.46L2046.88 1273.29Z" fill="#0E084F" stroke="#0E084F" stroke-width="20" stroke-miterlimit="10"/>
<path d="M2733.59 1274.87L2660 1226.71V419.138L2704.85 375.616L2733.59 338H3186.23L3243.71 395.605L3303 446.124V1073.79L3055.16 1235.98L3010.31 1254.79L2981.57 1274.78L2922.28 1293.59L2907.84 1312.4L2821.62 1370H2782.05L2733.59 1274.78V1274.87ZM2904.23 1176.1L2981.43 1111.41L3055.02 1054.98L3098.06 997.378L3117.78 467.204L3040.58 442.49H2893.26L2875.35 1157.2L2904.09 1176.01L2904.23 1176.1Z" fill="#0E084F" stroke="#0E084F" stroke-width="20" stroke-miterlimit="10"/>
<path d="M5847.59 1274.87L5774 1226.71V419.138L5818.85 375.616L5847.59 338H6300.23L6357.71 395.605L6417 446.124V1073.79L6169.16 1235.98L6124.31 1254.79L6095.57 1274.78L6036.28 1293.59L6021.84 1312.4L5935.62 1370H5896.05L5847.59 1274.78V1274.87ZM6018.23 1176.1L6095.43 1111.41L6169.02 1054.98L6212.06 997.378L6231.78 467.204L6154.58 442.49H6007.26L5989.35 1157.2L6018.09 1176.01L6018.23 1176.1Z" fill="#0E084F" stroke="#0E084F" stroke-width="20" stroke-miterlimit="10"/>
<path d="M3640.36 1284.15L3569.47 1254.81L3548.22 1214.84L3496.8 1168.96V471.996L3454.29 395.597L3410 356.806V338H3654.76L3692.06 362.71L3897.87 670.584L3943.94 701.107L4016.62 557.754L4045 518.963L4059.13 490.802L4117.68 395.597V340.362H4366L4332.27 414.4L4318.15 1369.91H4282.63L4261.38 1341.75L4245.47 1268.89L4146.2 1168.96V710.646H4117.81V729.452L4073.53 787.046L4016.76 902.239L3936.95 1006.8H3903.22L3881.97 932.762L3857.15 902.239L3745.39 710.646H3727.71L3713.45 1370H3674.37L3640.64 1284.24L3640.36 1284.15Z" fill="#0E084F" stroke="#0E084F" stroke-width="20" stroke-miterlimit="10"/>
<path d="M4849.41 870.166L4817.62 900.583L4532.47 904.834L4513.03 922.457L4497.85 926.749L4489.78 931L4486 926.749V844H4895V853.08L4871.75 870.166H4849.45H4849.41Z" fill="#0E084F" stroke="#0E084F" stroke-width="10" stroke-miterlimit="10"/>
<path d="M5274.39 1247.39L5135.51 1177.44L5115.56 503.775L5036.15 495.124L5016.2 459.607L4763 350.891L4792.73 338H5701V383.166L5584.37 421.926L5539.68 459.607H5499.97L5457.77 450.956L5437.82 459.607L5418.06 1361.35L5398.11 1370L5301.24 1327.99L5274.01 1247.31L5274.39 1247.39Z" fill="#0E084F" stroke="#231F20" stroke-miterlimit="10"/>
<path d="M8576.39 1247.39L8437.51 1177.44L8417.56 503.775L8338.15 495.124L8318.2 459.607L8065 350.891L8094.73 338H9003V383.166L8886.37 421.926L8841.68 459.607H8801.97L8759.77 450.956L8739.82 459.607L8720.06 1361.35L8700.11 1370L8603.24 1327.99L8576.01 1247.31L8576.39 1247.39Z" fill="#0E084F" stroke="#0E084F" stroke-width="20" stroke-miterlimit="10"/>
<path d="M7087.5 1291.51L7004.73 1241.85L6989.58 1181.11L6978.6 1145.79L6955.13 1028.82L6944.14 992.385L6927.61 898.536L6911.07 885.312H6706.8L6686.11 948.19L6611.55 1336.73L6593.63 1366.5L6574.32 1352.17L6563.23 1235.2L6541.15 1208.75V1145.87L6506.69 1100.65V1028.9L6535.71 904.167L6506.69 813.644L6486 779.432L6553.63 768.428L6585.42 607.262L6625.42 450.535L6596.4 383.219L6563.33 355.661V338H6973.16L6989.69 364.535L7046.22 651.541L7057.32 696.76L7069.69 767.403L7135.93 779.517V813.729L7084.84 894.271L7129 1109.53L7146.92 1217.71L7169 1324.78V1370H7146.92L7106.92 1338.01L7087.61 1291.68L7087.5 1291.51ZM6895.71 778.238L6848.78 593.952L6815.71 405.231L6788.09 383.133L6764.62 517.764L6753.63 561.873L6713.63 768.257L6895.82 778.153L6895.71 778.238Z" fill="#0E084F" stroke="#0E084F" stroke-width="20" stroke-miterlimit="10"/>
<path d="M7337.85 1251.6L7351.92 1234.95L7438.51 1167.3L7463.23 1139.23L7539.16 1083V1023.72L7567.43 997.74L7597.47 964.44L7611.67 956.074L7721.2 871.777L7434.95 743.801H7351.92L7336.08 712.593L7223 663.687V616.873L7639.94 372.347L7668.21 338H8011L7970.3 431.627L7956.24 456.563L7912.12 549.146H7883.86L7855.59 489.865L7811.48 464.929H7797.41V473.214L7541.21 633.443L7883.99 793.672L7898.19 845.716L7958.29 906.043L7827.59 1015.27L7797.54 1040.21L7696.89 1124.51L7553.77 1251.44L7511.43 1277.42L7412.56 1300.34L7375.41 1342.97L7237.61 1370V1334.61L7338.26 1251.36L7337.85 1251.6Z" fill="#0E084F" stroke="#0E084F" stroke-width="20" stroke-miterlimit="10"/>
<path d="M394.801 1272.85L337.178 1239.97V1087.17L219.868 1053.1L203.313 398.472L118.95 351.506L102.395 322.163L86 303.357L102.395 294H454.491V1134.32H503.833L621.146 1067.36L689.114 1010.95L787.961 953.354V389.208L722.064 351.597L705.51 322.254L680.837 294.091H1035L1006.19 1036.84L923.897 1096.8L722.064 1249.6H672.719L637.701 1240.24H571.801L421.541 1326H365.989L394.801 1273.13V1272.85Z" fill="white" stroke="#231F20" stroke-miterlimit="10"/>
<path d="M1290.05 811.032L1211.62 766.941V744.34L1172.41 712.541L1290.05 702.313V402.721L1072 310.415V294H1868.43L1915.03 313.509L1888.13 336.108L1748.51 394.553H1611.35V702.313L1930 711.511V727.927L1888.32 744.34L1809.89 799.77L1631.05 813.094V1178.34H1888.32V1202.93L1829.59 1228.54H1748.7L1589.38 1285.95L1530.65 1269.54H1471.92L1337.03 1326L1290.43 1285.95V810.953L1290.05 811.032Z" fill="black" stroke="white" stroke-width="20" stroke-miterlimit="10"/>
<path d="M2116.88 1229.29L2037.53 1145.75V407.903L2014.47 381.901L2001.54 328.723L1967 311.363V294H2177.49L2202.01 328.723L2307.2 593.518L2318.68 620.609L2350.44 701.968L2383.64 752.964H2400.92V337.363L2364.92 311.363V294H2623V355.815L2588.46 407.903V1308.55H2546.67L2517.81 1264.1L2493.29 1207.65L2447.16 1184.84L2432.79 1138.2L2370.83 1092.66L2213.71 734.596H2189.2V1326H2166.13L2143.06 1308.64L2117.1 1229.46L2116.88 1229.29Z" fill="black" stroke="white" stroke-width="20" stroke-miterlimit="10"/>
<path d="M2803.59 1230.87L2730 1182.71V375.138L2774.85 331.616L2803.59 294H3256.23L3313.71 351.605L3373 402.124V1029.79L3125.16 1191.98L3080.31 1210.79L3051.57 1230.78L2992.28 1249.59L2977.84 1268.4L2891.62 1326H2852.05L2803.59 1230.78V1230.87ZM2974.23 1132.1L3051.43 1067.41L3125.02 1010.98L3168.06 953.378L3187.78 423.204L3110.58 398.49H2963.26L2945.35 1113.2L2974.09 1132.01L2974.23 1132.1Z" fill="black" stroke="white" stroke-width="20" stroke-miterlimit="10"/>
<path d="M5917.59 1230.87L5844 1182.71V375.138L5888.85 331.616L5917.59 294H6370.23L6427.71 351.605L6487 402.124V1029.79L6239.16 1191.98L6194.31 1210.79L6165.57 1230.78L6106.28 1249.59L6091.84 1268.4L6005.62 1326H5966.05L5917.59 1230.78V1230.87ZM6088.23 1132.1L6165.43 1067.41L6239.02 1010.98L6282.06 953.378L6301.78 423.204L6224.58 398.49H6077.26L6059.35 1113.2L6088.09 1132.01L6088.23 1132.1Z" fill="black" stroke="white" stroke-width="20" stroke-miterlimit="10"/>
<path d="M3710.36 1240.15L3639.47 1210.81L3618.22 1170.84L3566.8 1124.96V427.996L3524.29 351.597L3480 312.806V294H3724.76L3762.06 318.71L3967.87 626.584L4013.94 657.107L4086.62 513.754L4115 474.963L4129.13 446.802L4187.68 351.597V296.362H4436L4402.27 370.4L4388.15 1325.91H4352.63L4331.38 1297.75L4315.47 1224.89L4216.2 1124.96V666.646H4187.81V685.452L4143.53 743.046L4086.76 858.239L4006.95 962.802H3973.22L3951.97 888.762L3927.15 858.239L3815.39 666.646H3797.71L3783.45 1326H3744.37L3710.64 1240.24L3710.36 1240.15Z" fill="black" stroke="white" stroke-width="20" stroke-miterlimit="10"/>
<path d="M4873.41 836.166L4841.62 866.583L4556.47 870.834L4537.03 888.457L4521.85 892.749L4513.78 897L4510 892.749V810H4919V819.08L4895.75 836.166H4873.45H4873.41Z" fill="#9E0B0B" stroke="white" stroke-width="10" stroke-miterlimit="10"/>
<path d="M5344.39 1203.39L5205.51 1133.44L5185.56 459.775L5106.15 451.124L5086.2 415.607L4833 306.891L4862.73 294H5771V339.166L5654.37 377.926L5609.68 415.607H5569.97L5527.77 406.956L5507.82 415.607L5488.06 1317.35L5468.11 1326L5371.24 1283.99L5344.01 1203.31L5344.39 1203.39Z" fill="white" stroke="#231F20" stroke-miterlimit="10"/>
<path d="M8646.39 1203.39L8507.51 1133.44L8487.56 459.775L8408.15 451.124L8388.2 415.607L8135 306.891L8164.73 294H9073V339.166L8956.37 377.926L8911.68 415.607H8871.97L8829.77 406.956L8809.82 415.607L8790.06 1317.35L8770.11 1326L8673.24 1283.99L8646.01 1203.31L8646.39 1203.39Z" fill="black" stroke="white" stroke-width="20" stroke-miterlimit="10"/>
<path d="M7157.5 1247.51L7074.73 1197.85L7059.58 1137.11L7048.6 1101.79L7025.13 984.816L7014.14 948.385L6997.61 854.536L6981.07 841.312H6776.8L6756.11 904.19L6681.55 1292.73L6663.63 1322.5L6644.32 1308.17L6633.23 1191.2L6611.15 1164.75V1101.87L6576.69 1056.65V984.902L6605.71 860.167L6576.69 769.644L6556 735.432L6623.63 724.428L6655.42 563.262L6695.42 406.535L6666.4 339.219L6633.33 311.661V294H7043.16L7059.69 320.535L7116.22 607.541L7127.32 652.76L7139.69 723.403L7205.93 735.517V769.729L7154.84 850.271L7199 1065.53L7216.92 1173.71L7239 1280.78V1326H7216.92L7176.92 1294.01L7157.61 1247.68L7157.5 1247.51ZM6965.71 734.238L6918.78 549.952L6885.71 361.231L6858.09 339.133L6834.62 473.764L6823.63 517.873L6783.63 724.257L6965.82 734.153L6965.71 734.238Z" fill="black" stroke="white" stroke-width="20" stroke-miterlimit="10"/>
<path d="M7407.85 1207.6L7421.92 1190.95L7508.51 1123.3L7533.23 1095.23L7609.16 1039V979.721L7637.43 953.74L7667.47 920.44L7681.67 912.074L7791.2 827.777L7504.95 699.801H7421.92L7406.08 668.593L7293 619.687V572.873L7709.94 328.347L7738.21 294H8081L8040.3 387.627L8026.24 412.563L7982.12 505.146H7953.86L7925.59 445.865L7881.48 420.929H7867.41V429.214L7611.21 589.443L7953.99 749.672L7968.19 801.716L8028.29 862.043L7897.59 971.275L7867.54 996.211L7766.89 1080.51L7623.77 1207.44L7581.43 1233.42L7482.56 1256.34L7445.41 1298.97L7307.61 1326V1290.61L7408.26 1207.36L7407.85 1207.6Z" fill="black" stroke="white" stroke-width="20" stroke-miterlimit="10"/>
</svg>
