<svg width="9068" height="1099" viewBox="0 0 9068 1099" fill="none" xmlns="http://www.w3.org/2000/svg">
<path d="M8561.39 963.39L8422.51 893.44L8402.56 219.775L8323.15 211.124L8303.2 175.607L8050 66.891L8079.73 54H8988V99.166L8871.37 137.926L8826.68 175.607H8786.97L8744.77 166.956L8724.82 175.607L8705.06 1077.35L8685.11 1086L8588.24 1043.99L8561.01 963.31L8561.39 963.39Z" fill="#0E084F" stroke="#0E084F" stroke-width="20" stroke-miterlimit="10"/>
<path d="M8631.39 919.39L8492.51 849.44L8472.56 175.775L8393.15 167.124L8373.2 131.607L8120 22.891L8149.73 10H9058V55.166L8941.37 93.926L8896.68 131.607H8856.97L8814.77 122.956L8794.82 131.607L8775.06 1033.35L8755.11 1042L8658.24 999.99L8631.01 919.31L8631.39 919.39Z" fill="black" stroke="white" stroke-width="20" stroke-miterlimit="10"/>
<path d="M7322.85 967.6L7336.92 950.95L7423.51 883.3L7448.23 855.23L7524.16 799V739.72L7552.43 713.74L7582.47 680.44L7596.67 672.074L7706.2 587.777L7419.95 459.801H7336.92L7321.08 428.593L7208 379.687V332.873L7624.94 88.347L7653.21 54H7996L7955.3 147.627L7941.24 172.563L7897.12 265.146H7868.86L7840.59 205.865L7796.48 180.929H7782.41V189.214L7526.21 349.443L7868.99 509.672L7883.19 561.716L7943.29 622.043L7812.59 731.27L7782.54 756.21L7681.89 840.51L7538.77 967.44L7496.43 993.42L7397.56 1016.34L7360.41 1058.97L7222.61 1086V1050.61L7323.26 967.36L7322.85 967.6Z" fill="#0E084F" stroke="#0E084F" stroke-width="20" stroke-miterlimit="10"/>
<path d="M7392.85 923.6L7406.92 906.95L7493.51 839.3L7518.23 811.23L7594.16 755V695.721L7622.43 669.74L7652.47 636.44L7666.67 628.074L7776.2 543.777L7489.95 415.801H7406.92L7391.08 384.593L7278 335.687V288.873L7694.94 44.347L7723.21 10H8066L8025.3 103.627L8011.24 128.563L7967.12 221.146H7938.86L7910.59 161.865L7866.48 136.929H7852.41V145.214L7596.21 305.443L7938.99 465.672L7953.19 517.716L8013.29 578.043L7882.59 687.275L7852.54 712.211L7751.89 796.51L7608.77 923.44L7566.43 949.42L7467.56 972.34L7430.41 1014.97L7292.61 1042V1006.61L7393.26 923.36L7392.85 923.6Z" fill="black" stroke="white" stroke-width="20" stroke-miterlimit="10"/>
<path d="M7072.5 1007.51L6989.73 957.85L6974.58 897.11L6963.6 861.79L6940.13 744.82L6929.14 708.385L6912.61 614.536L6896.07 601.312H6691.8L6671.11 664.19L6596.55 1052.73L6578.63 1082.5L6559.32 1068.17L6548.23 951.2L6526.15 924.75V861.87L6491.69 816.65V744.9L6520.71 620.167L6491.69 529.644L6471 495.432L6538.63 484.428L6570.42 323.262L6610.42 166.535L6581.4 99.219L6548.33 71.661V54H6958.16L6974.69 80.535L7031.22 367.541L7042.32 412.76L7054.69 483.403L7120.93 495.517V529.729L7069.84 610.271L7114 825.53L7131.92 933.71L7154 1040.78V1086H7131.92L7091.92 1054.01L7072.61 1007.68L7072.5 1007.51ZM6880.71 494.238L6833.78 309.952L6800.71 121.231L6773.09 99.133L6749.62 233.764L6738.63 277.873L6698.63 484.257L6880.82 494.153L6880.71 494.238Z" fill="#0E084F" stroke="#0E084F" stroke-width="20" stroke-miterlimit="10"/>
<path d="M7142.5 963.51L7059.73 913.85L7044.58 853.11L7033.6 817.79L7010.13 700.816L6999.14 664.385L6982.61 570.536L6966.07 557.312H6761.8L6741.11 620.19L6666.55 1008.73L6648.63 1038.5L6629.32 1024.17L6618.23 907.2L6596.15 880.75V817.87L6561.69 772.65V700.902L6590.71 576.167L6561.69 485.644L6541 451.432L6608.63 440.428L6640.42 279.262L6680.42 122.535L6651.4 55.219L6618.33 27.661V10H7028.16L7044.69 36.535L7101.22 323.541L7112.32 368.76L7124.69 439.403L7190.93 451.517V485.729L7139.84 566.271L7184 781.53L7201.92 889.71L7224 996.78V1042H7201.92L7161.92 1010.01L7142.61 963.68L7142.5 963.51ZM6950.71 450.238L6903.78 265.952L6870.71 77.231L6843.09 55.133L6819.62 189.764L6808.63 233.873L6768.63 440.257L6950.82 450.153L6950.71 450.238Z" fill="black" stroke="white" stroke-width="20" stroke-miterlimit="10"/>
<path d="M5832.59 990.87L5759 942.71V135.138L5803.85 91.616L5832.59 54H6285.23L6342.71 111.605L6402 162.124V789.79L6154.16 951.98L6109.31 970.79L6080.57 990.78L6021.28 1009.59L6006.84 1028.4L5920.62 1086H5881.05L5832.59 990.78V990.87ZM6003.23 892.1L6080.43 827.41L6154.02 770.98L6197.06 713.378L6216.78 183.204L6139.58 158.49H5992.26L5974.35 873.2L6003.09 892.01L6003.23 892.1Z" fill="#0E084F" stroke="#0E084F" stroke-width="20" stroke-miterlimit="10"/>
<path d="M5902.59 946.87L5829 898.71V91.138L5873.85 47.616L5902.59 10H6355.23L6412.71 67.605L6472 118.124V745.79L6224.16 907.98L6179.31 926.79L6150.57 946.78L6091.28 965.59L6076.84 984.4L5990.62 1042H5951.05L5902.59 946.78V946.87ZM6073.23 848.1L6150.43 783.41L6224.02 726.98L6267.06 669.378L6286.78 139.204L6209.58 114.49H6062.26L6044.35 829.2L6073.09 848.01L6073.23 848.1Z" fill="black" stroke="white" stroke-width="20" stroke-miterlimit="10"/>
<path d="M5259.39 963.39L5120.51 893.44L5100.56 219.775L5021.15 211.124L5001.2 175.607L4748 66.891L4777.73 54H5686V99.166L5569.37 137.926L5524.68 175.607H5484.97L5442.77 166.956L5422.82 175.607L5403.06 1077.35L5383.11 1086L5286.24 1043.99L5259.01 963.31L5259.39 963.39Z" fill="#0E084F" stroke="#231F20" stroke-miterlimit="10"/>
<path d="M5329.39 919.39L5190.51 849.44L5170.56 175.775L5091.15 167.124L5071.2 131.607L4818 22.891L4847.73 10H5756V55.166L5639.37 93.926L5594.68 131.607H5554.97L5512.77 122.956L5492.82 131.607L5473.06 1033.35L5453.11 1042L5356.24 999.99L5329.01 919.31L5329.39 919.39Z" fill="white" stroke="#231F20" stroke-miterlimit="10"/>
<path d="M4834.41 586.166L4802.62 616.583L4517.47 620.834L4498.03 638.457L4482.85 642.749L4474.78 647L4471 642.749V560H4880V569.08L4856.75 586.166H4834.45H4834.41Z" fill="#0E084F" stroke="#0E084F" stroke-width="10" stroke-miterlimit="10"/>
<path d="M4858.41 552.166L4826.62 582.583L4541.47 586.834L4522.03 604.457L4506.85 608.749L4498.78 613L4495 608.749V526H4904V535.08L4880.75 552.166H4858.45H4858.41Z" fill="#9E0B0B" stroke="white" stroke-width="10" stroke-miterlimit="10"/>
<path d="M3625.36 1000.15L3554.47 970.81L3533.22 930.84L3481.8 884.96V187.996L3439.29 111.597L3395 72.806V54H3639.76L3677.06 78.71L3882.87 386.584L3928.94 417.107L4001.62 273.754L4030 234.963L4044.13 206.802L4102.68 111.597V56.362H4351L4317.27 130.4L4303.15 1085.91H4267.63L4246.38 1057.75L4230.47 984.89L4131.2 884.96V426.646H4102.81V445.452L4058.53 503.046L4001.76 618.239L3921.95 722.8H3888.22L3866.97 648.762L3842.15 618.239L3730.39 426.646H3712.71L3698.45 1086H3659.37L3625.64 1000.24L3625.36 1000.15Z" fill="#0E084F" stroke="#0E084F" stroke-width="20" stroke-miterlimit="10"/>
<path d="M3695.36 956.15L3624.47 926.81L3603.22 886.84L3551.8 840.96V143.996L3509.29 67.597L3465 28.806V10H3709.76L3747.06 34.71L3952.87 342.584L3998.94 373.107L4071.62 229.754L4100 190.963L4114.13 162.802L4172.68 67.597V12.362H4421L4387.27 86.4L4373.15 1041.91H4337.63L4316.38 1013.75L4300.47 940.89L4201.2 840.96V382.646H4172.81V401.452L4128.53 459.046L4071.76 574.239L3991.95 678.802H3958.22L3936.97 604.762L3912.15 574.239L3800.39 382.646H3782.71L3768.45 1042H3729.37L3695.64 956.24L3695.36 956.15Z" fill="black" stroke="white" stroke-width="20" stroke-miterlimit="10"/>
<path d="M2718.59 990.87L2645 942.71V135.138L2689.85 91.616L2718.59 54H3171.23L3228.71 111.605L3288 162.124V789.79L3040.16 951.98L2995.31 970.79L2966.57 990.78L2907.28 1009.59L2892.84 1028.4L2806.62 1086H2767.05L2718.59 990.78V990.87ZM2889.23 892.1L2966.43 827.41L3040.02 770.98L3083.06 713.378L3102.78 183.204L3025.58 158.49H2878.26L2860.35 873.2L2889.09 892.01L2889.23 892.1Z" fill="#0E084F" stroke="#0E084F" stroke-width="20" stroke-miterlimit="10"/>
<path d="M2788.59 946.87L2715 898.71V91.138L2759.85 47.616L2788.59 10H3241.23L3298.71 67.605L3358 118.124V745.79L3110.16 907.98L3065.31 926.79L3036.57 946.78L2977.28 965.59L2962.84 984.4L2876.62 1042H2837.05L2788.59 946.78V946.87ZM2959.23 848.1L3036.43 783.41L3110.02 726.98L3153.06 669.378L3172.78 139.204L3095.58 114.49H2948.26L2930.35 829.2L2959.09 848.01L2959.23 848.1Z" fill="black" stroke="white" stroke-width="20" stroke-miterlimit="10"/>
<path d="M2031.88 989.29L1952.53 905.75V167.903L1929.47 141.901L1916.54 88.723L1882 71.363V54H2092.49L2117.01 88.723L2222.2 353.518L2233.68 380.609L2265.44 461.968L2298.64 512.964H2315.92V97.363L2279.92 71.363V54H2538V115.815L2503.46 167.903V1068.55H2461.67L2432.81 1024.1L2408.29 967.65L2362.16 944.84L2347.79 898.2L2285.83 852.66L2128.71 494.596H2104.2V1086H2081.13L2058.06 1068.64L2032.1 989.46L2031.88 989.29Z" fill="#0E084F" stroke="#0E084F" stroke-width="20" stroke-miterlimit="10"/>
<path d="M2101.88 945.29L2022.53 861.75V123.903L1999.47 97.901L1986.54 44.723L1952 27.363V10H2162.49L2187.01 44.723L2292.2 309.518L2303.68 336.609L2335.44 417.968L2368.64 468.964H2385.92V53.363L2349.92 27.363V10H2608V71.815L2573.46 123.903V1024.55H2531.67L2502.81 980.1L2478.29 923.65L2432.16 900.84L2417.79 854.2L2355.83 808.66L2198.71 450.596H2174.2V1042H2151.13L2128.06 1024.64L2102.1 945.46L2101.88 945.29Z" fill="black" stroke="white" stroke-width="20" stroke-miterlimit="10"/>
<path d="M1205.05 571.032L1126.62 526.941V504.34L1087.41 472.541L1205.05 462.313V162.721L987 70.415V54H1783.43L1830.03 73.509L1803.13 96.108L1663.51 154.553H1526.35V462.313L1845 471.511V487.927L1803.32 504.34L1724.89 559.77L1546.05 573.094V938.34H1803.32V962.93L1744.59 988.54H1663.7L1504.38 1045.95L1445.65 1029.54H1386.92L1252.03 1086L1205.43 1045.95V570.953L1205.05 571.032Z" fill="#0E084F" stroke="#0E084F" stroke-width="20" stroke-miterlimit="10"/>
<path d="M1275.05 527.032L1196.62 482.941V460.34L1157.41 428.541L1275.05 418.313V118.721L1057 26.415V10H1853.43L1900.03 29.509L1873.13 52.108L1733.51 110.553H1596.35V418.313L1915 427.511V443.927L1873.32 460.34L1794.89 515.77L1616.05 529.094V894.34H1873.32V918.93L1814.59 944.54H1733.7L1574.38 1001.95L1515.65 985.54H1456.92L1322.03 1042L1275.43 1001.95V526.953L1275.05 527.032Z" fill="black" stroke="white" stroke-width="20" stroke-miterlimit="10"/>
<path d="M309.801 1032.85L252.178 999.97V847.17L134.868 813.1L118.313 158.472L33.9502 111.506L17.3954 82.163L1 63.357L17.3954 54H369.491V894.32H418.833L536.146 827.36L604.114 770.95L702.961 713.354V149.208L637.064 111.597L620.51 82.254L595.837 54.091H950L921.188 796.84L838.897 856.8L637.064 1009.6H587.719L552.701 1000.24H486.801L336.541 1086H280.989L309.801 1033.13V1032.85Z" fill="#0E084F" stroke="#231F20" stroke-miterlimit="10"/>
<path d="M379.801 988.85L322.178 955.97V803.17L204.868 769.1L188.313 114.472L103.95 67.506L87.395 38.163L71 19.357L87.395 10H439.491V850.32H488.833L606.146 783.36L674.114 726.95L772.961 669.354V105.208L707.064 67.597L690.51 38.254L665.837 10.091H1020L991.19 752.84L908.897 812.8L707.064 965.6H657.719L622.701 956.24H556.801L406.541 1042H350.989L379.801 989.13V988.85Z" fill="white" stroke="#231F20" stroke-miterlimit="10"/>
</svg>
